<?xml version="1.0" encoding="utf-8"?>
<!-- Generator: Adobe Illustrator 27.6.1, SVG Export Plug-In . SVG Version: 6.00 Build 0)  -->
<svg version="1.1" baseProfile="tiny" id="Layer_1" xmlns="http://www.w3.org/2000/svg" xmlns:xlink="http://www.w3.org/1999/xlink"
	 x="0px" y="0px" viewBox="0 0 1080 1080" overflow="visible" xml:space="preserve">
<g>
	<g>
		<path d="M2432.3,1280.2h58.9v14.9h-42.3v8.3h39.5v14.9h-39.5v23.4h-16.6L2432.3,1280.2L2432.3,1280.2z"/>
		<path d="M2505.6,1280.2h60v14.9h-43.4v8.3h40.6v14.9h-40.6v8.5h43.4v14.8h-60V1280.2z"/>
		<path d="M2581.1,1280.2h16.6v46.8h33.4v14.8h-50V1280.2L2581.1,1280.2z"/>
		<path d="M2644.4,1280.2h16.6v46.8h33.4v14.8h-50V1280.2L2644.4,1280.2z"/>
		<path d="M2733.6,1279.1c5.4,0,10.2,1,14.1,2.9c4,1.9,7.3,4.5,9.9,7.6c2.6,3.1,4.5,6.5,5.8,10.3s1.9,7.5,1.9,11.1
			s-0.6,7.4-1.9,11.2s-3.2,7.2-5.8,10.3s-5.9,5.6-9.9,7.5s-8.7,2.9-14.1,2.9c-5.4,0-10.1-1-14.1-2.9s-7.3-4.4-9.9-7.5
			c-2.6-3.1-4.5-6.5-5.8-10.3s-1.9-7.5-1.9-11.2s0.6-7.4,1.9-11.1s3.2-7.2,5.8-10.3c2.6-3.1,5.9-5.6,9.9-7.6
			C2723.5,1280.1,2728.2,1279.1,2733.6,1279.1z M2733.6,1294.5c-2.5,0-4.6,0.5-6.4,1.5c-1.8,1-3.3,2.3-4.5,3.9s-2.1,3.3-2.6,5.3
			c-0.6,1.9-0.9,3.9-0.9,5.8s0.3,3.8,0.9,5.8c0.6,1.9,1.5,3.7,2.6,5.3c1.2,1.6,2.7,2.9,4.5,3.8c1.8,1,4,1.5,6.4,1.5
			c2.5,0,4.7-0.5,6.5-1.5s3.3-2.3,4.6-3.8s2.1-3.3,2.7-5.3c0.6-1.9,0.9-3.9,0.9-5.8s-0.3-3.8-0.9-5.8c-0.6-1.9-1.5-3.7-2.7-5.3
			c-1.2-1.6-2.7-2.9-4.6-3.9C2738.3,1295,2736.1,1294.5,2733.6,1294.5z"/>
		<path d="M2775.6,1280.2h16.4l5.7,33.1l8.3-24.5h14.9l8.7,24.6l5.1-33.2h16.4l-9.1,61.6h-16l-12.6-26.8l-12.5,26.8h-16.1
			L2775.6,1280.2z"/>
		<path d="M2864.3,1341.8v-61.6h45.6c3.5,0,6.4,0.6,8.9,1.8c2.4,1.2,4.4,2.7,6,4.6c1.6,1.8,2.7,3.9,3.4,6.2c0.7,2.3,1.1,4.6,1.1,6.9
			s-0.4,4.6-1.2,6.8c-0.8,2.2-1.9,4.2-3.5,6s-3.6,3.2-6,4.4s-5.3,1.7-8.7,1.7h-29v23.4L2864.3,1341.8L2864.3,1341.8z M2880.9,1303.5
			h29c0.9,0,1.5-0.3,2-0.9s0.7-1.4,0.7-2.5v-1.7c0-1.1-0.2-1.9-0.7-2.5s-1.2-0.9-2-0.9h-29V1303.5z"/>
		<path d="M2943.1,1341.8v-61.6h42.9c3.5,0,6.4,0.6,8.9,1.8c2.4,1.2,4.4,2.7,6,4.6c1.6,1.8,2.7,3.9,3.4,6.2c0.7,2.3,1.1,4.6,1.1,6.9
			c0,1.8-0.2,3.6-0.7,5.4s-1.2,3.6-2.3,5.2c-1,1.6-2.4,3.1-4,4.4s-3.6,2.2-6,2.9c0,0.1,0,0.1,0.1,0.1c0,0,0.1,0,0.1,0.1l14.7,24.1
			h-18.7l-14.1-23.4h-14.6v23.4L2943.1,1341.8L2943.1,1341.8z M2959.7,1303.5h26.2c0.9,0,1.5-0.3,2-0.9s0.7-1.4,0.7-2.5v-1.7
			c0-1.1-0.2-1.9-0.7-2.5s-1.2-0.9-2-0.9h-26.2V1303.5z"/>
		<path d="M3049.3,1279.1c5.4,0,10.2,1,14.1,2.9c4,1.9,7.3,4.5,9.9,7.6c2.6,3.1,4.5,6.5,5.8,10.3s1.9,7.5,1.9,11.1
			s-0.6,7.4-1.9,11.2s-3.2,7.2-5.8,10.3s-5.9,5.6-9.9,7.5s-8.7,2.9-14.1,2.9c-5.4,0-10.1-1-14.1-2.9s-7.3-4.4-9.9-7.5
			c-2.6-3.1-4.5-6.5-5.8-10.3s-1.9-7.5-1.9-11.2s0.6-7.4,1.9-11.1s3.2-7.2,5.8-10.3c2.6-3.1,5.9-5.6,9.9-7.6
			C3039.2,1280.1,3043.9,1279.1,3049.3,1279.1z M3049.3,1294.5c-2.5,0-4.6,0.5-6.4,1.5c-1.8,1-3.3,2.3-4.5,3.9s-2.1,3.3-2.6,5.3
			c-0.6,1.9-0.9,3.9-0.9,5.8s0.3,3.8,0.9,5.8c0.6,1.9,1.5,3.7,2.6,5.3c1.2,1.6,2.7,2.9,4.5,3.8c1.8,1,4,1.5,6.4,1.5
			c2.5,0,4.7-0.5,6.5-1.5s3.3-2.3,4.6-3.8s2.1-3.3,2.7-5.3c0.6-1.9,0.9-3.9,0.9-5.8s-0.3-3.8-0.9-5.8c-0.6-1.9-1.5-3.7-2.7-5.3
			c-1.2-1.6-2.7-2.9-4.6-3.9C3054,1295,3051.8,1294.5,3049.3,1294.5z"/>
	</g>
	<g>
		<path d="M2360.4,1330.9v39.6h-66.2c-7.3,0-13.2-5.9-13.2-13.2v-66.2h39.6v28.5c0,6.2,5.1,11.3,11.3,11.3L2360.4,1330.9
			L2360.4,1330.9z"/>
	</g>
	<g>
		<path d="M2399.9,1330.9h-39.6v-28.5c0-6.2-5.1-11.3-11.3-11.3h-28.5v-39.6h66.2c7.3,0,13.2,5.9,13.2,13.2L2399.9,1330.9
			L2399.9,1330.9z"/>
	</g>
</g>
<g>
	<g>
		<g>
			<path d="M1830.2,881.1v99.8h-166.9c-18.4,0-33.3-14.9-33.3-33.3V780.7h99.8v71.9c0,15.7,12.8,28.5,28.5,28.5L1830.2,881.1
				L1830.2,881.1z"/>
		</g>
	</g>
	<g>
		<g>
			<path d="M1930,881.1h-99.8v-71.9c0-15.7-12.8-28.5-28.5-28.5h-71.9v-99.8h166.9c18.4,0,33.3,14.9,33.3,33.3V881.1z"/>
		</g>
	</g>
</g>
<g>
	<g>
		<g>
			<path d="M2778.2,658.1V891h-389.5c-42.9,0-77.6-34.7-77.6-77.6V423.8H2544v167.8c0,36.7,29.8,66.5,66.4,66.5H2778.2L2778.2,658.1
				z"/>
		</g>
	</g>
	<g>
		<g>
			<path d="M3011,658.1h-232.9V490.3c0-36.7-29.8-66.4-66.4-66.4h-167.8V191h389.5c42.9,0,77.6,34.7,77.6,77.6L3011,658.1
				L3011,658.1z"/>
		</g>
	</g>
</g>
<g>
	<g>
		<path d="M1661,1361.6h29.4v7.5h-21.2v4.2h19.8v7.5h-19.8v11.7h-8.3L1661,1361.6L1661,1361.6z"/>
		<path d="M1697.6,1361.6h30v7.5h-21.7v4.2h20.3v7.5h-20.3v4.3h21.7v7.4h-30V1361.6z"/>
		<path d="M1735.4,1361.6h8.3v23.4h16.7v7.4h-25V1361.6z"/>
		<path d="M1767,1361.6h8.3v23.4h16.7v7.4h-25V1361.6z"/>
		<path d="M1811.6,1361c2.7,0,5.1,0.5,7.1,1.5s3.6,2.2,4.9,3.8c1.3,1.6,2.3,3.3,2.9,5.2c0.6,1.9,0.9,3.7,0.9,5.6
			c0,1.8-0.3,3.7-0.9,5.6s-1.6,3.6-2.9,5.2s-2.9,2.8-4.9,3.8s-4.3,1.5-7.1,1.5c-2.7,0-5-0.5-7-1.5s-3.6-2.2-4.9-3.8
			c-1.3-1.5-2.3-3.2-2.9-5.2s-0.9-3.8-0.9-5.6c0-1.8,0.3-3.7,0.9-5.6s1.6-3.6,2.9-5.2s2.9-2.8,4.9-3.8S1808.9,1361,1811.6,1361z
			 M1811.6,1368.7c-1.2,0-2.3,0.3-3.2,0.8c-0.9,0.5-1.7,1.2-2.2,1.9c-0.6,0.8-1,1.7-1.3,2.6c-0.3,1-0.4,1.9-0.4,2.9s0.2,1.9,0.4,2.9
			c0.3,1,0.7,1.9,1.3,2.6c0.6,0.8,1.3,1.4,2.2,1.9c0.9,0.5,2,0.7,3.2,0.7c1.3,0,2.4-0.2,3.3-0.7s1.7-1.1,2.3-1.9s1.1-1.7,1.3-2.6
			c0.3-1,0.4-1.9,0.4-2.9s-0.2-1.9-0.4-2.9c-0.3-1-0.7-1.9-1.3-2.6c-0.6-0.8-1.4-1.4-2.3-1.9S1812.9,1368.7,1811.6,1368.7z"/>
		<path d="M1832.6,1361.6h8.2l2.8,16.6l4.1-12.2h7.5l4.4,12.3l2.6-16.6h8.2l-4.6,30.8h-8l-6.3-13.4l-6.3,13.4h-8L1832.6,1361.6z"/>
		<path d="M1877,1392.4v-30.8h22.8c1.7,0,3.2,0.3,4.4,0.9c1.2,0.6,2.2,1.3,3,2.3c0.8,0.9,1.4,2,1.7,3.1c0.4,1.1,0.5,2.3,0.5,3.4
			s-0.2,2.3-0.6,3.4s-1,2.1-1.8,3s-1.8,1.6-3,2.2s-2.7,0.8-4.3,0.8h-14.5v11.7H1877z M1885.3,1373.2h14.5c0.4,0,0.8-0.2,1-0.4
			c0.2-0.3,0.4-0.7,0.4-1.2v-0.8c0-0.5-0.1-0.9-0.4-1.2c-0.2-0.3-0.6-0.4-1-0.4h-14.5V1373.2z"/>
		<path d="M1916.4,1392.4v-30.8h21.4c1.7,0,3.2,0.3,4.4,0.9c1.2,0.6,2.2,1.3,3,2.3c0.8,0.9,1.4,2,1.7,3.1c0.3,1.1,0.5,2.3,0.5,3.4
			c0,0.9-0.1,1.8-0.4,2.7c-0.2,0.9-0.6,1.8-1.1,2.6s-1.2,1.6-2,2.2s-1.8,1.1-3,1.5v0.1c0,0,0,0,0,0.1l7.3,12.1h-9.4l-7.1-11.7h-7.3
			v11.7L1916.4,1392.4L1916.4,1392.4z M1924.7,1373.2h13.1c0.4,0,0.8-0.2,1-0.4c0.2-0.3,0.4-0.7,0.4-1.2v-0.8c0-0.5-0.1-0.9-0.4-1.2
			c-0.2-0.3-0.6-0.4-1-0.4h-13.1V1373.2z"/>
		<path d="M1969.5,1361c2.7,0,5.1,0.5,7.1,1.5s3.6,2.2,4.9,3.8c1.3,1.6,2.3,3.3,2.9,5.2c0.6,1.9,0.9,3.7,0.9,5.6
			c0,1.8-0.3,3.7-0.9,5.6s-1.6,3.6-2.9,5.2s-2.9,2.8-4.9,3.8s-4.3,1.5-7.1,1.5c-2.7,0-5-0.5-7-1.5s-3.6-2.2-4.9-3.8
			c-1.3-1.5-2.3-3.2-2.9-5.2s-0.9-3.8-0.9-5.6c0-1.8,0.3-3.7,0.9-5.6s1.6-3.6,2.9-5.2s2.9-2.8,4.9-3.8
			C1964.4,1361.5,1966.8,1361,1969.5,1361z M1969.5,1368.7c-1.2,0-2.3,0.3-3.2,0.8c-0.9,0.5-1.7,1.2-2.2,1.9c-0.6,0.8-1,1.7-1.3,2.6
			c-0.3,1-0.4,1.9-0.4,2.9s0.2,1.9,0.4,2.9c0.3,1,0.7,1.9,1.3,2.6c0.6,0.8,1.3,1.4,2.2,1.9c0.9,0.5,2,0.7,3.2,0.7
			c1.3,0,2.4-0.2,3.3-0.7s1.7-1.1,2.3-1.9s1.1-1.7,1.3-2.6c0.3-1,0.4-1.9,0.4-2.9s-0.2-1.9-0.4-2.9c-0.3-1-0.7-1.9-1.3-2.6
			c-0.6-0.8-1.4-1.4-2.3-1.9C1971.8,1369,1970.7,1368.7,1969.5,1368.7z"/>
	</g>
	<g>
		<path d="M1625,1386.9v19.8h-33.1c-3.6,0-6.6-2.9-6.6-6.6V1367h19.8v14.3c0,3.1,2.5,5.7,5.7,5.7L1625,1386.9L1625,1386.9z"/>
	</g>
	<g>
		<path d="M1644.8,1386.9H1625v-14.3c0-3.1-2.5-5.7-5.7-5.7H1605v-19.8h33.1c3.6,0,6.6,2.9,6.6,6.6L1644.8,1386.9L1644.8,1386.9z"/>
	</g>
</g>
<g>
	<g>
		<path d="M1304.8,1403.1h13.2v3.4h-9.5v1.9h8.9v3.4h-8.9v5.3h-3.7V1403.1L1304.8,1403.1z"/>
		<path d="M1321.3,1403.1h13.5v3.4h-9.8v1.9h9.1v3.4h-9.1v1.9h9.8v3.3h-13.5V1403.1z"/>
		<path d="M1338.3,1403.1h3.7v10.5h7.5v3.3h-11.2V1403.1z"/>
		<path d="M1352.5,1403.1h3.7v10.5h7.5v3.3h-11.2V1403.1z"/>
		<path d="M1372.6,1402.8c1.2,0,2.3,0.2,3.2,0.7c0.9,0.4,1.6,1,2.2,1.7s1,1.5,1.3,2.3s0.4,1.7,0.4,2.5s-0.1,1.7-0.4,2.5
			s-0.7,1.6-1.3,2.3c-0.6,0.7-1.3,1.2-2.2,1.7c-0.9,0.4-2,0.7-3.2,0.7s-2.3-0.2-3.2-0.7c-0.9-0.4-1.6-1-2.2-1.7s-1-1.5-1.3-2.3
			c-0.3-0.9-0.4-1.7-0.4-2.5s0.1-1.7,0.4-2.5s0.7-1.6,1.3-2.3c0.6-0.7,1.3-1.3,2.2-1.7C1370.3,1403,1371.4,1402.8,1372.6,1402.8z
			 M1372.6,1406.3c-0.6,0-1,0.1-1.4,0.3c-0.4,0.2-0.8,0.5-1,0.9c-0.3,0.3-0.5,0.8-0.6,1.2s-0.2,0.9-0.2,1.3s0.1,0.9,0.2,1.3
			s0.3,0.8,0.6,1.2c0.3,0.3,0.6,0.6,1,0.9c0.4,0.2,0.9,0.3,1.4,0.3c0.6,0,1.1-0.1,1.5-0.3c0.4-0.2,0.8-0.5,1-0.9
			c0.3-0.3,0.5-0.8,0.6-1.2c0.1-0.4,0.2-0.9,0.2-1.3s-0.1-0.9-0.2-1.3s-0.3-0.8-0.6-1.2c-0.3-0.3-0.6-0.7-1-0.9
			C1373.6,1406.4,1373.2,1406.3,1372.6,1406.3z"/>
		<path d="M1382,1403.1h3.7l1.3,7.4l1.9-5.5h3.4l2,5.5l1.2-7.5h3.7l-2.1,13.9h-3.6l-2.8-6l-2.8,6h-3.6L1382,1403.1z"/>
		<path d="M1402,1416.9V1403h10.3c0.8,0,1.4,0.1,2,0.4s1,0.6,1.4,1c0.3,0.4,0.6,0.9,0.8,1.4s0.2,1,0.2,1.5s-0.1,1-0.3,1.5
			s-0.4,0.9-0.8,1.4c-0.3,0.4-0.8,0.7-1.4,1c-0.6,0.2-1.2,0.4-1.9,0.4h-6.5v5.3L1402,1416.9L1402,1416.9z M1405.7,1408.3h6.5
			c0.2,0,0.3-0.1,0.5-0.2s0.2-0.3,0.2-0.6v-0.4c0-0.2-0.1-0.4-0.2-0.6s-0.3-0.2-0.5-0.2h-6.5V1408.3z"/>
		<path d="M1419.7,1416.9V1403h9.6c0.8,0,1.4,0.1,2,0.4s1,0.6,1.4,1c0.3,0.4,0.6,0.9,0.8,1.4s0.2,1,0.2,1.5c0,0.4-0.1,0.8-0.2,1.2
			c-0.1,0.4-0.3,0.8-0.5,1.2s-0.5,0.7-0.9,1s-0.8,0.5-1.3,0.7l0,0l0,0l3.3,5.4h-4.2l-3.2-5.3h-3.3v5.3L1419.7,1416.9L1419.7,1416.9z
			 M1423.4,1408.3h5.9c0.2,0,0.3-0.1,0.5-0.2s0.2-0.3,0.2-0.6v-0.4c0-0.2-0.1-0.4-0.2-0.6s-0.3-0.2-0.5-0.2h-5.9V1408.3z"/>
		<path d="M1443.6,1402.8c1.2,0,2.3,0.2,3.2,0.7c0.9,0.4,1.6,1,2.2,1.7s1,1.5,1.3,2.3s0.4,1.7,0.4,2.5s-0.1,1.7-0.4,2.5
			s-0.7,1.6-1.3,2.3c-0.6,0.7-1.3,1.2-2.2,1.7c-0.9,0.4-2,0.7-3.2,0.7s-2.3-0.2-3.2-0.7c-0.9-0.4-1.6-1-2.2-1.7s-1-1.5-1.3-2.3
			c-0.3-0.9-0.4-1.7-0.4-2.5s0.1-1.7,0.4-2.5s0.7-1.6,1.3-2.3c0.6-0.7,1.3-1.3,2.2-1.7C1441.3,1403,1442.4,1402.8,1443.6,1402.8z
			 M1443.6,1406.3c-0.6,0-1,0.1-1.4,0.3c-0.4,0.2-0.8,0.5-1,0.9c-0.3,0.3-0.5,0.8-0.6,1.2s-0.2,0.9-0.2,1.3s0.1,0.9,0.2,1.3
			s0.3,0.8,0.6,1.2c0.3,0.3,0.6,0.6,1,0.9c0.4,0.2,0.9,0.3,1.4,0.3c0.6,0,1.1-0.1,1.5-0.3c0.4-0.2,0.8-0.5,1-0.9
			c0.3-0.3,0.5-0.8,0.6-1.2c0.1-0.4,0.2-0.9,0.2-1.3s-0.1-0.9-0.2-1.3s-0.3-0.8-0.6-1.2c-0.3-0.3-0.6-0.7-1-0.9
			S1444.2,1406.3,1443.6,1406.3z"/>
	</g>
	<g>
		<path d="M1288.6,1414.5v8.9h-14.9c-1.6,0-3-1.3-3-3v-14.9h8.9v6.4c0,1.4,1.1,2.5,2.5,2.5L1288.6,1414.5L1288.6,1414.5z"/>
	</g>
	<g>
		<path d="M1297.5,1414.5h-8.9v-6.4c0-1.4-1.1-2.5-2.5-2.5h-6.4v-8.9h14.9c1.6,0,3,1.3,3,3L1297.5,1414.5L1297.5,1414.5z"/>
	</g>
</g>
<g>
	<g>
		<path d="M1269.8,1643.9h13.6v3.4h-9.8v1.9h9.1v3.4h-9.1v5.4h-3.8L1269.8,1643.9L1269.8,1643.9z"/>
		<path d="M1286.7,1643.9h13.9v3.4h-10v1.9h9.4v3.4h-9.4v2h10v3.4h-13.9V1643.9z"/>
		<path d="M1304.2,1643.9h3.8v10.8h7.7v3.4h-11.6L1304.2,1643.9L1304.2,1643.9z"/>
		<path d="M1318.8,1643.9h3.8v10.8h7.7v3.4h-11.6L1318.8,1643.9L1318.8,1643.9z"/>
		<path d="M1339.4,1643.6c1.3,0,2.3,0.2,3.3,0.7c0.9,0.4,1.7,1,2.3,1.8s1.1,1.5,1.3,2.4c0.3,0.9,0.4,1.7,0.4,2.6s-0.2,1.7-0.4,2.6
			c-0.3,0.9-0.7,1.7-1.3,2.4s-1.4,1.3-2.3,1.7s-2,0.7-3.3,0.7c-1.2,0-2.3-0.2-3.2-0.7c-0.9-0.4-1.7-1-2.3-1.7s-1.1-1.5-1.3-2.4
			c-0.3-0.9-0.4-1.7-0.4-2.6s0.2-1.7,0.4-2.6c0.3-0.9,0.7-1.7,1.3-2.4s1.4-1.3,2.3-1.8C1337.1,1643.8,1338.2,1643.6,1339.4,1643.6z
			 M1339.4,1647.2c-0.6,0-1.1,0.1-1.5,0.3c-0.4,0.2-0.8,0.5-1,0.9s-0.5,0.8-0.6,1.2c-0.1,0.4-0.2,0.9-0.2,1.3s0.1,0.9,0.2,1.3
			s0.3,0.9,0.6,1.2s0.6,0.7,1,0.9s0.9,0.3,1.5,0.3s1.1-0.1,1.5-0.3s0.8-0.5,1.1-0.9s0.5-0.8,0.6-1.2c0.1-0.4,0.2-0.9,0.2-1.3
			s-0.1-0.9-0.2-1.3s-0.3-0.9-0.6-1.2s-0.6-0.7-1.1-0.9S1340,1647.2,1339.4,1647.2z"/>
		<path d="M1349.1,1643.9h3.8l1.3,7.7l1.9-5.7h3.4l2,5.7l1.2-7.7h3.8l-2.1,14.2h-3.7l-2.9-6.2l-2.9,6.2h-3.7L1349.1,1643.9z"/>
		<path d="M1369.6,1658.1v-14.2h10.6c0.8,0,1.5,0.1,2.1,0.4s1,0.6,1.4,1.1s0.6,0.9,0.8,1.4c0.2,0.5,0.2,1.1,0.2,1.6
			s-0.1,1.1-0.3,1.6c-0.2,0.5-0.4,1-0.8,1.4s-0.8,0.8-1.4,1c-0.6,0.3-1.2,0.4-2,0.4h-6.7v5.4L1369.6,1658.1L1369.6,1658.1z
			 M1373.5,1649.2h6.7c0.2,0,0.4-0.1,0.5-0.2s0.2-0.3,0.2-0.6v-0.4c0-0.2-0.1-0.4-0.2-0.6c-0.1-0.1-0.3-0.2-0.5-0.2h-6.7V1649.2z"/>
		<path d="M1387.8,1658.1v-14.2h9.9c0.8,0,1.5,0.1,2.1,0.4s1,0.6,1.4,1.1s0.6,0.9,0.8,1.4c0.2,0.5,0.2,1.1,0.2,1.6
			c0,0.4-0.1,0.8-0.2,1.3c-0.1,0.4-0.3,0.8-0.5,1.2s-0.5,0.7-0.9,1s-0.8,0.5-1.4,0.7l0,0l0,0l3.4,5.6h-4.3l-3.3-5.4h-3.4v5.4
			L1387.8,1658.1L1387.8,1658.1z M1391.7,1649.2h6.1c0.2,0,0.4-0.1,0.5-0.2s0.2-0.3,0.2-0.6v-0.4c0-0.2-0.1-0.4-0.2-0.6
			c-0.1-0.1-0.3-0.2-0.5-0.2h-6.1V1649.2z"/>
		<path d="M1412.4,1643.6c1.3,0,2.3,0.2,3.3,0.7c0.9,0.4,1.7,1,2.3,1.8s1.1,1.5,1.3,2.4c0.3,0.9,0.4,1.7,0.4,2.6s-0.2,1.7-0.4,2.6
			c-0.3,0.9-0.7,1.7-1.3,2.4s-1.4,1.3-2.3,1.7s-2,0.7-3.3,0.7c-1.2,0-2.3-0.2-3.2-0.7c-0.9-0.4-1.7-1-2.3-1.7s-1.1-1.5-1.3-2.4
			c-0.3-0.9-0.4-1.7-0.4-2.6s0.2-1.7,0.4-2.6c0.3-0.9,0.7-1.7,1.3-2.4s1.4-1.3,2.3-1.8C1410.1,1643.8,1411.2,1643.6,1412.4,1643.6z
			 M1412.4,1647.2c-0.6,0-1.1,0.1-1.5,0.3c-0.4,0.2-0.8,0.5-1,0.9s-0.5,0.8-0.6,1.2c-0.1,0.4-0.2,0.9-0.2,1.3s0.1,0.9,0.2,1.3
			s0.3,0.9,0.6,1.2s0.6,0.7,1,0.9s0.9,0.3,1.5,0.3s1.1-0.1,1.5-0.3s0.8-0.5,1.1-0.9s0.5-0.8,0.6-1.2c0.1-0.4,0.2-0.9,0.2-1.3
			s-0.1-0.9-0.2-1.3s-0.3-0.9-0.6-1.2s-0.6-0.7-1.1-0.9S1413,1647.2,1412.4,1647.2z"/>
	</g>
	<g>
		<g>
			<path d="M1349.3,1626v9.2H1334c-1.7,0-3.1-1.4-3.1-3.1v-15.3h9.2v6.6c0,1.4,1.2,2.6,2.6,2.6L1349.3,1626L1349.3,1626z"/>
		</g>
		<g>
			<path d="M1358.5,1626h-9.2v-6.6c0-1.4-1.2-2.6-2.6-2.6h-6.6v-9.2h15.3c1.7,0,3.1,1.4,3.1,3.1L1358.5,1626L1358.5,1626z"/>
		</g>
	</g>
</g>
<g>
	<g>
		<path d="M1545,1621.7h27.2v6.9h-19.6v3.9h18.3v6.9h-18.3v10.8h-7.7L1545,1621.7L1545,1621.7z"/>
		<path d="M1578.9,1621.7h27.8v6.9h-20.1v3.9h18.8v6.9h-18.8v3.9h20.1v6.9h-27.8V1621.7z"/>
		<path d="M1613.8,1621.7h7.7v21.6h15.4v6.9h-23.1V1621.7z"/>
		<path d="M1643.1,1621.7h7.7v21.6h15.4v6.9h-23.1V1621.7z"/>
		<path d="M1684.3,1621.2c2.5,0,4.7,0.4,6.5,1.3s3.4,2.1,4.6,3.5s2.1,3,2.7,4.8c0.6,1.7,0.9,3.5,0.9,5.2s-0.3,3.4-0.9,5.2
			s-1.5,3.3-2.7,4.8c-1.2,1.4-2.7,2.6-4.6,3.5s-4,1.3-6.5,1.3s-4.7-0.4-6.5-1.3s-3.4-2.1-4.6-3.5s-2.1-3-2.7-4.8s-0.9-3.5-0.9-5.2
			s0.3-3.4,0.9-5.2c0.6-1.7,1.5-3.3,2.7-4.8c1.2-1.4,2.7-2.6,4.6-3.5C1679.7,1621.7,1681.8,1621.2,1684.3,1621.2z M1684.3,1628.3
			c-1.1,0-2.1,0.2-3,0.7s-1.5,1.1-2.1,1.8c-0.5,0.7-0.9,1.5-1.2,2.4c-0.3,0.9-0.4,1.8-0.4,2.7c0,0.9,0.1,1.8,0.4,2.7
			s0.7,1.7,1.2,2.4c0.5,0.7,1.2,1.3,2.1,1.8c0.8,0.5,1.8,0.7,3,0.7s2.2-0.2,3-0.7s1.5-1.1,2.1-1.8c0.6-0.7,1-1.5,1.2-2.4
			c0.3-0.9,0.4-1.8,0.4-2.7s-0.1-1.8-0.4-2.7s-0.7-1.7-1.2-2.4c-0.6-0.7-1.3-1.3-2.1-1.8C1686.5,1628.6,1685.5,1628.3,1684.3,1628.3
			z"/>
		<path d="M1703.8,1621.7h7.6l2.6,15.3l3.8-11.3h6.9l4,11.4l2.4-15.4h7.6l-4.2,28.5h-7.4l-5.8-12.4l-5.8,12.4h-7.4L1703.8,1621.7z"
			/>
		<path d="M1744.8,1650.2v-28.5h21.1c1.6,0,3,0.3,4.1,0.8s2.1,1.2,2.8,2.1s1.3,1.8,1.6,2.9c0.3,1.1,0.5,2.1,0.5,3.2
			s-0.2,2.1-0.5,3.1s-0.9,2-1.6,2.8s-1.7,1.5-2.8,2c-1.1,0.5-2.5,0.8-4,0.8h-13.4v10.8L1744.8,1650.2L1744.8,1650.2z M1752.5,1632.5
			h13.4c0.4,0,0.7-0.1,0.9-0.4s0.3-0.7,0.3-1.1v-0.8c0-0.5-0.1-0.9-0.3-1.1c-0.2-0.3-0.5-0.4-0.9-0.4h-13.4V1632.5z"/>
		<path d="M1781.2,1650.2v-28.5h19.8c1.6,0,3,0.3,4.1,0.8s2.1,1.2,2.8,2.1s1.3,1.8,1.6,2.9c0.3,1.1,0.5,2.1,0.5,3.2
			c0,0.8-0.1,1.7-0.3,2.5s-0.6,1.6-1.1,2.4s-1.1,1.4-1.8,2c-0.8,0.6-1.7,1-2.8,1.3l0,0l0,0l6.8,11.2h-8.7l-6.5-10.8h-6.7v10.8
			L1781.2,1650.2L1781.2,1650.2z M1788.9,1632.5h12.1c0.4,0,0.7-0.1,0.9-0.4s0.3-0.7,0.3-1.1v-0.8c0-0.5-0.1-0.9-0.3-1.1
			c-0.2-0.3-0.5-0.4-0.9-0.4h-12.1V1632.5z"/>
		<path d="M1830.3,1621.2c2.5,0,4.7,0.4,6.5,1.3s3.4,2.1,4.6,3.5s2.1,3,2.7,4.8c0.6,1.7,0.9,3.5,0.9,5.2s-0.3,3.4-0.9,5.2
			s-1.5,3.3-2.7,4.8c-1.2,1.4-2.7,2.6-4.6,3.5s-4,1.3-6.5,1.3s-4.7-0.4-6.5-1.3s-3.4-2.1-4.6-3.5s-2.1-3-2.7-4.8s-0.9-3.5-0.9-5.2
			s0.3-3.4,0.9-5.2c0.6-1.7,1.5-3.3,2.7-4.8c1.2-1.4,2.7-2.6,4.6-3.5C1825.7,1621.7,1827.8,1621.2,1830.3,1621.2z M1830.3,1628.3
			c-1.1,0-2.1,0.2-3,0.7s-1.5,1.1-2.1,1.8c-0.5,0.7-0.9,1.5-1.2,2.4c-0.3,0.9-0.4,1.8-0.4,2.7c0,0.9,0.1,1.8,0.4,2.7
			s0.7,1.7,1.2,2.4c0.5,0.7,1.2,1.3,2.1,1.8c0.8,0.5,1.8,0.7,3,0.7s2.2-0.2,3-0.7s1.5-1.1,2.1-1.8c0.6-0.7,1-1.5,1.2-2.4
			c0.3-0.9,0.4-1.8,0.4-2.7s-0.1-1.8-0.4-2.7s-0.7-1.7-1.2-2.4c-0.6-0.7-1.3-1.3-2.1-1.8C1832.5,1628.6,1831.5,1628.3,1830.3,1628.3
			z"/>
	</g>
	<g>
		<g>
			<path d="M1704.2,1586v18.3h-30.6c-3.4,0-6.1-2.7-6.1-6.1v-30.6h18.3v13.2c0,2.9,2.3,5.2,5.2,5.2H1704.2z"/>
		</g>
		<g>
			<path d="M1722.5,1586h-18.3v-13.2c0-2.9-2.3-5.2-5.2-5.2h-13.2v-18.3h30.6c3.4,0,6.1,2.7,6.1,6.1V1586z"/>
		</g>
	</g>
</g>
<g>
	<g>
		<path d="M2187,1709.4h54.5v13.8h-39.1v7.7h36.6v13.8h-36.6v21.6H2187V1709.4z"/>
		<path d="M2254.8,1709.4h55.5v13.8h-40.1v7.7h37.6v13.8h-37.6v7.9h40.1v13.7h-55.5V1709.4z"/>
		<path d="M2324.6,1709.4h15.4v43.2h30.9v13.7h-46.2L2324.6,1709.4L2324.6,1709.4z"/>
		<path d="M2383.1,1709.4h15.4v43.2h30.9v13.7h-46.2L2383.1,1709.4L2383.1,1709.4z"/>
		<path d="M2465.7,1708.4c5,0,9.4,0.9,13.1,2.7s6.7,4.1,9.1,7c2.4,2.9,4.2,6,5.4,9.5s1.8,6.9,1.8,10.3s-0.6,6.8-1.8,10.3
			s-3,6.7-5.4,9.5s-5.4,5.2-9.1,6.9c-3.7,1.8-8.1,2.7-13.1,2.7s-9.3-0.9-13-2.7c-3.7-1.8-6.7-4.1-9.1-6.9s-4.2-6-5.4-9.5
			s-1.8-7-1.8-10.3c0-3.4,0.6-6.8,1.8-10.3s3-6.7,5.4-9.5c2.4-2.9,5.4-5.2,9.1-7C2456.4,1709.3,2460.7,1708.4,2465.7,1708.4z
			 M2465.7,1722.7c-2.3,0-4.3,0.5-6,1.4s-3.1,2.2-4.2,3.6c-1.1,1.5-1.9,3.1-2.4,4.9s-0.8,3.6-0.8,5.4s0.3,3.6,0.8,5.4
			s1.4,3.4,2.4,4.9c1.1,1.5,2.5,2.7,4.2,3.6s3.7,1.4,6,1.4s4.4-0.5,6.1-1.4s3.1-2.1,4.2-3.6c1.1-1.5,1.9-3.1,2.5-4.9
			c0.5-1.8,0.8-3.6,0.8-5.4s-0.3-3.6-0.8-5.4s-1.4-3.4-2.5-4.9s-2.5-2.7-4.2-3.6C2470,1723.1,2468,1722.7,2465.7,1722.7z"/>
		<path d="M2504.6,1709.4h15.2l5.2,30.6l7.6-22.7h13.8l8.1,22.7l4.7-30.7h15.2l-8.4,57h-14.8l-11.7-24.8l-11.6,24.8h-14.8
			L2504.6,1709.4z"/>
		<path d="M2586.6,1766.4v-57h42.2c3.2,0,5.9,0.5,8.2,1.6s4.1,2.5,5.6,4.2s2.5,3.6,3.2,5.8c0.7,2.1,1,4.2,1,6.3s-0.4,4.2-1.1,6.3
			c-0.7,2.1-1.8,3.9-3.3,5.6s-3.3,3-5.6,4s-4.9,1.5-8,1.5h-26.9v21.6L2586.6,1766.4L2586.6,1766.4z M2601.9,1731h26.9
			c0.8,0,1.4-0.3,1.9-0.8s0.7-1.3,0.7-2.3v-1.5c0-1-0.2-1.7-0.7-2.3s-1.1-0.8-1.9-0.8h-26.9V1731z"/>
		<path d="M2659.4,1766.4v-57h39.6c3.2,0,5.9,0.5,8.2,1.6s4.1,2.5,5.6,4.2s2.5,3.6,3.2,5.8c0.7,2.1,1,4.2,1,6.3c0,1.7-0.2,3.3-0.7,5
			s-1.2,3.3-2.1,4.8c-0.9,1.5-2.2,2.9-3.7,4s-3.4,2.1-5.5,2.7c0,0.1,0,0.1,0,0.1s0,0,0,0.1l13.6,22.3h-17.3l-13-21.6h-13.5v21.6
			L2659.4,1766.4L2659.4,1766.4z M2674.8,1731h24.3c0.8,0,1.4-0.3,1.9-0.8s0.7-1.3,0.7-2.3v-1.5c0-1-0.2-1.7-0.7-2.3
			s-1.1-0.8-1.9-0.8h-24.3V1731z"/>
		<path d="M2757.7,1708.4c5,0,9.4,0.9,13.1,2.7s6.7,4.1,9.1,7c2.4,2.9,4.2,6,5.4,9.5s1.8,6.9,1.8,10.3s-0.6,6.8-1.8,10.3
			s-3,6.7-5.4,9.5s-5.4,5.2-9.1,6.9c-3.7,1.8-8.1,2.7-13.1,2.7s-9.3-0.9-13-2.7c-3.7-1.8-6.7-4.1-9.1-6.9s-4.2-6-5.4-9.5
			s-1.8-7-1.8-10.3c0-3.4,0.6-6.8,1.8-10.3s3-6.7,5.4-9.5c2.4-2.9,5.4-5.2,9.1-7C2748.4,1709.3,2752.7,1708.4,2757.7,1708.4z
			 M2757.7,1722.7c-2.3,0-4.3,0.5-6,1.4s-3.1,2.2-4.2,3.6c-1.1,1.5-1.9,3.1-2.4,4.9s-0.8,3.6-0.8,5.4s0.3,3.6,0.8,5.4
			s1.4,3.4,2.4,4.9c1.1,1.5,2.5,2.7,4.2,3.6s3.7,1.4,6,1.4c2.4,0,4.4-0.5,6.1-1.4s3.1-2.1,4.2-3.6c1.1-1.5,1.9-3.1,2.5-4.9
			c0.5-1.8,0.8-3.6,0.8-5.4s-0.3-3.6-0.8-5.4s-1.4-3.4-2.5-4.9s-2.5-2.7-4.2-3.6C2762,1723.1,2760,1722.7,2757.7,1722.7z"/>
	</g>
	<g>
		<g>
			<path d="M2505.4,1637.9v36.6h-61.2c-6.7,0-12.2-5.5-12.2-12.2v-61.2h36.6v26.4c0,5.8,4.7,10.4,10.4,10.4L2505.4,1637.9
				L2505.4,1637.9z"/>
		</g>
		<g>
			<path d="M2542,1637.9h-36.6v-26.4c0-5.8-4.7-10.4-10.4-10.4h-26.4v-36.6h61.2c6.7,0,12.2,5.5,12.2,12.2V1637.9L2542,1637.9z"/>
		</g>
	</g>
</g>
<g>
	<g>
		<path fill="#FFFFFF" d="M311.3,1279.2h58.9v14.9h-42.3v8.3h39.5v14.9h-39.5v23.4h-16.6V1279.2L311.3,1279.2z"/>
		<path fill="#FFFFFF" d="M384.6,1279.2h60v14.9h-43.4v8.3h40.6v14.9h-40.6v8.5h43.4v14.8h-60V1279.2z"/>
		<path fill="#FFFFFF" d="M460.1,1279.2h16.6v46.8h33.4v14.8h-50V1279.2L460.1,1279.2z"/>
		<path fill="#FFFFFF" d="M523.3,1279.2H540v46.8h33.4v14.8h-50L523.3,1279.2L523.3,1279.2z"/>
		<path fill="#FFFFFF" d="M612.6,1278.1c5.4,0,10.2,1,14.2,2.9s7.3,4.5,9.9,7.6c2.6,3.1,4.5,6.5,5.8,10.3s1.9,7.5,1.9,11.1
			s-0.6,7.4-1.9,11.2s-3.2,7.2-5.8,10.3s-5.9,5.6-9.9,7.5s-8.7,2.9-14.2,2.9c-5.4,0-10.1-1-14-2.9c-4-1.9-7.3-4.4-9.9-7.5
			s-4.5-6.5-5.8-10.3s-1.9-7.5-1.9-11.2s0.6-7.4,1.9-11.1s3.2-7.2,5.8-10.3c2.6-3.1,5.9-5.6,9.9-7.6
			C602.5,1279.1,607.2,1278.1,612.6,1278.1z M612.6,1293.5c-2.5,0-4.6,0.5-6.5,1.5s-3.3,2.3-4.5,3.9s-2.1,3.3-2.6,5.3
			c-0.6,1.9-0.9,3.9-0.9,5.8s0.3,3.8,0.9,5.8c0.6,1.9,1.5,3.7,2.6,5.3c1.2,1.6,2.7,2.9,4.5,3.8c1.8,1,4,1.5,6.5,1.5s4.7-0.5,6.5-1.5
			s3.3-2.3,4.5-3.8c1.2-1.6,2.1-3.3,2.7-5.3c0.6-1.9,0.9-3.9,0.9-5.8s-0.3-3.8-0.9-5.8c-0.6-1.9-1.5-3.7-2.7-5.3
			c-1.2-1.6-2.7-2.9-4.5-3.9S615.1,1293.5,612.6,1293.5z"/>
		<path fill="#FFFFFF" d="M654.6,1279.2H671l5.7,33.1l8.3-24.5h14.9l8.7,24.6l5.1-33.2h16.4l-9.1,61.6h-16l-12.6-26.8l-12.5,26.8
			h-16.1L654.6,1279.2z"/>
		<path fill="#FFFFFF" d="M743.3,1340.8v-61.6h45.6c3.5,0,6.4,0.6,8.9,1.8c2.4,1.2,4.5,2.7,6,4.6c1.6,1.8,2.7,3.9,3.4,6.2
			c0.7,2.3,1.1,4.6,1.1,6.9s-0.4,4.6-1.2,6.8c-0.8,2.2-2,4.2-3.5,6s-3.6,3.2-6,4.4s-5.3,1.7-8.7,1.7h-29v23.4L743.3,1340.8
			L743.3,1340.8z M759.9,1302.5h29c0.9,0,1.5-0.3,2-0.9s0.7-1.4,0.7-2.5v-1.7c0-1.1-0.2-1.9-0.7-2.5s-1.2-0.9-2-0.9h-29V1302.5z"/>
		<path fill="#FFFFFF" d="M822.1,1340.8v-61.6H865c3.5,0,6.4,0.6,8.9,1.8c2.4,1.2,4.5,2.7,6,4.6c1.6,1.8,2.7,3.9,3.4,6.2
			c0.7,2.3,1.1,4.6,1.1,6.9c0,1.8-0.2,3.6-0.7,5.4s-1.2,3.6-2.3,5.2c-1,1.6-2.3,3.1-4,4.4s-3.6,2.2-6,2.9c0,0.1,0,0.1,0,0.1
			s0,0,0,0.1l14.7,24.1h-18.7l-14.1-23.4h-14.6v23.4L822.1,1340.8L822.1,1340.8z M838.7,1302.5h26.2c0.9,0,1.5-0.3,2-0.9
			s0.7-1.4,0.7-2.5v-1.7c0-1.1-0.2-1.9-0.7-2.5s-1.2-0.9-2-0.9h-26.2V1302.5z"/>
		<path fill="#FFFFFF" d="M928.3,1278.1c5.4,0,10.2,1,14.2,2.9s7.3,4.5,9.9,7.6c2.6,3.1,4.5,6.5,5.8,10.3s1.9,7.5,1.9,11.1
			s-0.6,7.4-1.9,11.2s-3.2,7.2-5.8,10.3s-5.9,5.6-9.9,7.5s-8.7,2.9-14.2,2.9c-5.4,0-10.1-1-14-2.9c-4-1.9-7.3-4.4-9.9-7.5
			s-4.5-6.5-5.8-10.3s-1.9-7.5-1.9-11.2s0.6-7.4,1.9-11.1s3.2-7.2,5.8-10.3c2.6-3.1,5.9-5.6,9.9-7.6
			C918.2,1279.1,922.9,1278.1,928.3,1278.1z M928.3,1293.5c-2.5,0-4.6,0.5-6.5,1.5s-3.3,2.3-4.5,3.9s-2.1,3.3-2.6,5.3
			c-0.6,1.9-0.9,3.9-0.9,5.8s0.3,3.8,0.9,5.8c0.6,1.9,1.5,3.7,2.6,5.3c1.2,1.6,2.7,2.9,4.5,3.8c1.8,1,4,1.5,6.5,1.5s4.7-0.5,6.5-1.5
			s3.3-2.3,4.5-3.8c1.2-1.6,2.1-3.3,2.7-5.3c0.6-1.9,0.9-3.9,0.9-5.8s-0.3-3.8-0.9-5.8c-0.6-1.9-1.5-3.7-2.7-5.3
			c-1.2-1.6-2.7-2.9-4.5-3.9S930.8,1293.5,928.3,1293.5z"/>
	</g>
	<g>
		<path fill="#FFFFFF" d="M239.4,1329.9v39.6h-66.2c-7.3,0-13.2-5.9-13.2-13.2v-66.2h39.6v28.5c0,6.2,5.1,11.3,11.3,11.3
			L239.4,1329.9L239.4,1329.9z"/>
	</g>
	<g>
		<path fill="#FFFFFF" d="M278.9,1329.9h-39.6v-28.5c0-6.2-5.1-11.3-11.3-11.3h-28.5v-39.6h66.2c7.3,0,13.2,5.9,13.2,13.2V1329.9z"
			/>
	</g>
</g>
<g>
	<g>
		<g>
			<path fill="#2289AF" d="M657.2,657.1V890H267.6c-42.9,0-77.6-34.7-77.6-77.6V422.8h232.9v167.8c0,36.7,29.8,66.5,66.4,66.5H657.2
				L657.2,657.1z"/>
		</g>
	</g>
	<g>
		<g>
			<path fill="#2289AF" d="M890,657.1H657.2V489.3c0-36.7-29.8-66.4-66.5-66.4H422.9V190h389.5c42.9,0,77.6,34.7,77.6,77.6V657.1
				L890,657.1z"/>
		</g>
	</g>
</g>
<g>
	<g>
		<g>
			<path fill="#FFFFFF" d="M-740.6,1000.1v39.9h-66.8c-7.3,0-13.3-6-13.3-13.3v-66.8h39.9v28.8c0,6.3,5.1,11.4,11.4,11.4H-740.6
				L-740.6,1000.1z"/>
		</g>
	</g>
	<g>
		<g>
			<path fill="#FFFFFF" d="M-700.7,1000.1h-39.9v-28.8c0-6.3-5.1-11.4-11.4-11.4h-28.8V920h66.8c7.3,0,13.3,6,13.3,13.3
				L-700.7,1000.1L-700.7,1000.1z"/>
		</g>
	</g>
</g>
<g>
	<g>
		<path fill="#FFFFFF" d="M-460,1360.6h29.5v7.5h-21.1v4.2h19.8v7.5h-19.8v11.7h-8.3L-460,1360.6L-460,1360.6z"/>
		<path fill="#FFFFFF" d="M-423.4,1360.6h30v7.5h-21.7v4.2h20.3v7.5h-20.3v4.3h21.7v7.4h-30V1360.6z"/>
		<path fill="#FFFFFF" d="M-385.6,1360.6h8.3v23.4h16.7v7.4h-25V1360.6z"/>
		<path fill="#FFFFFF" d="M-354,1360.6h8.3v23.4h16.7v7.4h-25V1360.6z"/>
		<path fill="#FFFFFF" d="M-309.4,1360c2.7,0,5.1,0.5,7.1,1.5s3.6,2.2,4.9,3.8s2.3,3.3,2.9,5.2c0.6,1.9,1,3.7,1,5.6
			c0,1.8-0.3,3.7-1,5.6s-1.6,3.6-2.9,5.2s-3,2.8-4.9,3.8c-2,1-4.4,1.5-7.1,1.5s-5-0.5-7-1.5s-3.6-2.2-4.9-3.8s-2.3-3.2-2.9-5.2
			s-1-3.8-1-5.6c0-1.8,0.3-3.7,1-5.6c0.6-1.9,1.6-3.6,2.9-5.2s3-2.8,4.9-3.8C-314.4,1360.5-312.1,1360-309.4,1360z M-309.4,1367.7
			c-1.2,0-2.3,0.3-3.2,0.8s-1.7,1.2-2.2,1.9c-0.6,0.8-1,1.7-1.3,2.6s-0.4,1.9-0.4,2.9s0.1,1.9,0.4,2.9s0.7,1.9,1.3,2.6
			c0.6,0.8,1.3,1.4,2.2,1.9c0.9,0.5,2,0.7,3.2,0.7c1.3,0,2.4-0.2,3.3-0.7s1.7-1.1,2.3-1.9c0.6-0.8,1-1.7,1.4-2.6
			c0.3-1,0.4-1.9,0.4-2.9s-0.1-1.9-0.4-2.9s-0.7-1.9-1.4-2.6c-0.6-0.8-1.4-1.4-2.3-1.9S-308.1,1367.7-309.4,1367.7z"/>
		<path fill="#FFFFFF" d="M-288.4,1360.6h8.2l2.8,16.6l4.1-12.2h7.5l4.4,12.3l2.5-16.6h8.2l-4.6,30.8h-8l-6.3-13.4l-6.3,13.4h-8
			L-288.4,1360.6z"/>
		<path fill="#FFFFFF" d="M-244,1391.4v-30.8h22.8c1.7,0,3.2,0.3,4.4,0.9s2.2,1.3,3,2.3c0.8,0.9,1.4,2,1.7,3.1
			c0.4,1.1,0.5,2.3,0.5,3.4s-0.2,2.3-0.6,3.4c-0.4,1.1-1,2.1-1.8,3s-1.8,1.6-3,2.2s-2.7,0.8-4.3,0.8h-14.5v11.7H-244z
			 M-235.7,1372.2h14.5c0.4,0,0.8-0.2,1-0.4c0.2-0.3,0.4-0.7,0.4-1.2v-0.8c0-0.5-0.1-0.9-0.4-1.2c-0.2-0.3-0.6-0.4-1-0.4h-14.5
			V1372.2z"/>
		<path fill="#FFFFFF" d="M-204.6,1391.4v-30.8h21.4c1.7,0,3.2,0.3,4.4,0.9s2.2,1.3,3,2.3c0.8,0.9,1.4,2,1.7,3.1
			c0.4,1.1,0.5,2.3,0.5,3.4c0,0.9-0.1,1.8-0.4,2.7c-0.2,0.9-0.6,1.8-1.1,2.6s-1.2,1.6-2,2.2s-1.8,1.1-3,1.5v0.1c0,0,0,0,0,0.1
			l7.3,12.1h-9.4l-7.1-11.7h-7.3v11.7L-204.6,1391.4L-204.6,1391.4z M-196.3,1372.2h13.1c0.4,0,0.8-0.2,1-0.4
			c0.2-0.3,0.4-0.7,0.4-1.2v-0.8c0-0.5-0.1-0.9-0.4-1.2c-0.2-0.3-0.6-0.4-1-0.4h-13.1V1372.2z"/>
		<path fill="#FFFFFF" d="M-151.5,1360c2.7,0,5.1,0.5,7.1,1.5s3.6,2.2,4.9,3.8s2.3,3.3,2.9,5.2c0.6,1.9,0.9,3.7,0.9,5.6
			c0,1.8-0.3,3.7-0.9,5.6c-0.6,1.9-1.6,3.6-2.9,5.2c-1.3,1.5-2.9,2.8-4.9,3.8s-4.4,1.5-7.1,1.5c-2.7,0-5-0.5-7-1.5s-3.6-2.2-4.9-3.8
			s-2.3-3.2-2.9-5.2c-0.6-1.9-0.9-3.8-0.9-5.6c0-1.8,0.3-3.7,0.9-5.6c0.6-1.9,1.6-3.6,2.9-5.2c1.3-1.6,2.9-2.8,4.9-3.8
			C-156.6,1360.5-154.2,1360-151.5,1360z M-151.5,1367.7c-1.2,0-2.3,0.3-3.2,0.8s-1.7,1.2-2.2,1.9c-0.6,0.8-1,1.7-1.3,2.6
			c-0.3,1-0.4,1.9-0.4,2.9s0.1,1.9,0.4,2.9c0.3,1,0.7,1.9,1.3,2.6c0.6,0.8,1.3,1.4,2.2,1.9s2,0.7,3.2,0.7c1.3,0,2.4-0.2,3.3-0.7
			s1.7-1.1,2.3-1.9s1.1-1.7,1.4-2.6c0.3-1,0.4-1.9,0.4-2.9s-0.1-1.9-0.4-2.9c-0.3-1-0.7-1.9-1.4-2.6c-0.6-0.8-1.4-1.4-2.3-1.9
			C-149.2,1368-150.3,1367.7-151.5,1367.7z"/>
	</g>
	<g>
		<path fill="#FFFFFF" d="M-496,1385.9v19.8h-33.1c-3.6,0-6.6-2.9-6.6-6.6V1366h19.8v14.3c0,3.1,2.5,5.7,5.6,5.7L-496,1385.9
			L-496,1385.9z"/>
	</g>
	<g>
		<path fill="#FFFFFF" d="M-476.2,1385.9H-496v-14.3c0-3.1-2.5-5.7-5.6-5.7h-14.3v-19.8h33.1c3.6,0,6.6,2.9,6.6,6.6V1385.9
			L-476.2,1385.9z"/>
	</g>
</g>
<g>
	<g>
		<path fill="#FFFFFF" d="M-816.2,1402.1h13.2v3.4h-9.5v1.9h8.9v3.4h-8.9v5.3h-3.7V1402.1L-816.2,1402.1z"/>
		<path fill="#FFFFFF" d="M-799.7,1402.1h13.5v3.4h-9.8v1.9h9.1v3.4h-9.1v1.9h9.8v3.3h-13.5V1402.1z"/>
		<path fill="#FFFFFF" d="M-782.7,1402.1h3.7v10.5h7.5v3.3h-11.2V1402.1z"/>
		<path fill="#FFFFFF" d="M-768.5,1402.1h3.7v10.5h7.5v3.3h-11.2V1402.1z"/>
		<path fill="#FFFFFF" d="M-748.4,1401.8c1.2,0,2.3,0.2,3.2,0.7c0.9,0.4,1.6,1,2.2,1.7c0.6,0.7,1,1.5,1.3,2.3s0.4,1.7,0.4,2.5
			s-0.1,1.7-0.4,2.5s-0.7,1.6-1.3,2.3s-1.3,1.2-2.2,1.7c-0.9,0.4-2,0.7-3.2,0.7s-2.3-0.2-3.2-0.7c-0.9-0.4-1.6-1-2.2-1.7
			c-0.6-0.7-1-1.5-1.3-2.3c-0.3-0.9-0.4-1.7-0.4-2.5s0.1-1.7,0.4-2.5c0.3-0.8,0.7-1.6,1.3-2.3s1.3-1.3,2.2-1.7
			C-750.7,1402-749.6,1401.8-748.4,1401.8z M-748.4,1405.3c-0.6,0-1,0.1-1.5,0.3c-0.4,0.2-0.8,0.5-1,0.9c-0.3,0.3-0.5,0.8-0.6,1.2
			s-0.2,0.9-0.2,1.3s0.1,0.9,0.2,1.3c0.1,0.4,0.3,0.8,0.6,1.2c0.3,0.3,0.6,0.6,1,0.9c0.4,0.2,0.9,0.3,1.5,0.3s1.1-0.1,1.5-0.3
			s0.8-0.5,1-0.9c0.3-0.3,0.5-0.8,0.6-1.2c0.1-0.4,0.2-0.9,0.2-1.3s-0.1-0.9-0.2-1.3c-0.1-0.4-0.3-0.8-0.6-1.2
			c-0.3-0.3-0.6-0.7-1-0.9C-747.4,1405.4-747.8,1405.3-748.4,1405.3z"/>
		<path fill="#FFFFFF" d="M-739,1402.1h3.7l1.3,7.4l1.9-5.5h3.4l2,5.5l1.2-7.5h3.7l-2,13.9h-3.6l-2.8-6l-2.8,6h-3.6L-739,1402.1z"/>
		<path fill="#FFFFFF" d="M-719,1415.9V1402h10.3c0.8,0,1.4,0.1,2,0.4c0.5,0.3,1,0.6,1.4,1c0.3,0.4,0.6,0.9,0.8,1.4s0.2,1,0.2,1.5
			s-0.1,1-0.3,1.5s-0.4,0.9-0.8,1.4c-0.3,0.4-0.8,0.7-1.4,1s-1.2,0.4-2,0.4h-6.5v5.3L-719,1415.9L-719,1415.9z M-715.3,1407.3h6.5
			c0.2,0,0.3-0.1,0.5-0.2c0.1-0.1,0.2-0.3,0.2-0.6v-0.4c0-0.2-0.1-0.4-0.2-0.6s-0.3-0.2-0.5-0.2h-6.5V1407.3z"/>
		<path fill="#FFFFFF" d="M-701.3,1415.9V1402h9.6c0.8,0,1.4,0.1,2,0.4c0.5,0.3,1,0.6,1.4,1c0.3,0.4,0.6,0.9,0.8,1.4s0.2,1,0.2,1.5
			c0,0.4-0.1,0.8-0.2,1.2c-0.1,0.4-0.3,0.8-0.5,1.2s-0.5,0.7-0.9,1s-0.8,0.5-1.3,0.7l0,0l0,0l3.3,5.4h-4.2l-3.2-5.3h-3.3v5.3
			L-701.3,1415.9L-701.3,1415.9z M-697.5,1407.3h5.9c0.2,0,0.3-0.1,0.5-0.2c0.1-0.1,0.2-0.3,0.2-0.6v-0.4c0-0.2-0.1-0.4-0.2-0.6
			s-0.3-0.2-0.5-0.2h-5.9V1407.3z"/>
		<path fill="#FFFFFF" d="M-677.4,1401.8c1.2,0,2.3,0.2,3.2,0.7s1.6,1,2.2,1.7c0.6,0.7,1,1.5,1.3,2.3s0.4,1.7,0.4,2.5
			s-0.1,1.7-0.4,2.5s-0.7,1.6-1.3,2.3s-1.3,1.2-2.2,1.7s-2,0.7-3.2,0.7s-2.3-0.2-3.2-0.7c-0.9-0.4-1.6-1-2.2-1.7
			c-0.6-0.7-1-1.5-1.3-2.3c-0.3-0.9-0.4-1.7-0.4-2.5s0.1-1.7,0.4-2.5c0.3-0.8,0.7-1.6,1.3-2.3s1.3-1.3,2.2-1.7
			C-679.7,1402-678.6,1401.8-677.4,1401.8z M-677.4,1405.3c-0.6,0-1,0.1-1.5,0.3c-0.4,0.2-0.8,0.5-1,0.9c-0.3,0.3-0.5,0.8-0.6,1.2
			s-0.2,0.9-0.2,1.3s0.1,0.9,0.2,1.3c0.1,0.4,0.3,0.8,0.6,1.2c0.3,0.3,0.6,0.6,1,0.9c0.4,0.2,0.9,0.3,1.5,0.3s1.1-0.1,1.5-0.3
			s0.8-0.5,1-0.9c0.3-0.3,0.5-0.8,0.6-1.2c0.1-0.4,0.2-0.9,0.2-1.3s-0.1-0.9-0.2-1.3c-0.1-0.4-0.3-0.8-0.6-1.2
			c-0.3-0.3-0.6-0.7-1-0.9C-676.3,1405.4-676.8,1405.3-677.4,1405.3z"/>
	</g>
	<g>
		<path fill="#FFFFFF" d="M-832.4,1413.5v8.9h-14.9c-1.6,0-3-1.3-3-3v-14.9h8.9v6.4c0,1.4,1.1,2.5,2.5,2.5L-832.4,1413.5
			L-832.4,1413.5z"/>
	</g>
	<g>
		<path fill="#FFFFFF" d="M-823.5,1413.5h-8.9v-6.4c0-1.4-1.1-2.5-2.5-2.5h-6.4v-8.9h14.9c1.6,0,3,1.3,3,3L-823.5,1413.5
			L-823.5,1413.5z"/>
	</g>
</g>
<g>
	<g>
		<path fill="#FFFFFF" d="M-851.2,1642.9h13.6v3.4h-9.8v1.9h9.1v3.4h-9.1v5.4h-3.8V1642.9L-851.2,1642.9z"/>
		<path fill="#FFFFFF" d="M-834.3,1642.9h13.9v3.4h-10v1.9h9.4v3.4h-9.4v2h10v3.4h-13.9V1642.9z"/>
		<path fill="#FFFFFF" d="M-816.8,1642.9h3.8v10.8h7.7v3.4h-11.6L-816.8,1642.9L-816.8,1642.9z"/>
		<path fill="#FFFFFF" d="M-802.2,1642.9h3.8v10.8h7.7v3.4h-11.6L-802.2,1642.9L-802.2,1642.9z"/>
		<path fill="#FFFFFF" d="M-781.6,1642.6c1.3,0,2.3,0.2,3.3,0.7c0.9,0.4,1.7,1,2.3,1.8c0.6,0.7,1,1.5,1.3,2.4s0.4,1.7,0.4,2.6
			s-0.2,1.7-0.4,2.6c-0.3,0.9-0.7,1.7-1.3,2.4c-0.6,0.7-1.4,1.3-2.3,1.7c-0.9,0.4-2,0.7-3.3,0.7c-1.2,0-2.3-0.2-3.2-0.7
			c-0.9-0.4-1.7-1-2.3-1.7s-1-1.5-1.3-2.4s-0.4-1.7-0.4-2.6s0.2-1.7,0.4-2.6s0.7-1.7,1.3-2.4c0.6-0.7,1.4-1.3,2.3-1.8
			C-783.9,1642.8-782.8,1642.6-781.6,1642.6z M-781.6,1646.2c-0.6,0-1.1,0.1-1.5,0.3c-0.4,0.2-0.8,0.5-1,0.9
			c-0.3,0.4-0.5,0.8-0.6,1.2c-0.1,0.4-0.2,0.9-0.2,1.3s0.1,0.9,0.2,1.3c0.1,0.4,0.3,0.9,0.6,1.2c0.3,0.4,0.6,0.7,1,0.9
			s0.9,0.3,1.5,0.3s1.1-0.1,1.5-0.3s0.8-0.5,1-0.9c0.3-0.4,0.5-0.8,0.6-1.2c0.1-0.4,0.2-0.9,0.2-1.3s-0.1-0.9-0.2-1.3
			c-0.1-0.4-0.3-0.9-0.6-1.2c-0.3-0.4-0.6-0.7-1-0.9S-781,1646.2-781.6,1646.2z"/>
		<path fill="#FFFFFF" d="M-771.9,1642.9h3.8l1.3,7.7l1.9-5.7h3.5l2,5.7l1.2-7.7h3.8l-2.1,14.2h-3.7l-2.9-6.2l-2.9,6.2h-3.7
			L-771.9,1642.9z"/>
		<path fill="#FFFFFF" d="M-751.4,1657.1v-14.2h10.5c0.8,0,1.5,0.1,2,0.4c0.6,0.3,1,0.6,1.4,1.1s0.6,0.9,0.8,1.4s0.2,1.1,0.2,1.6
			s-0.1,1.1-0.3,1.6s-0.5,1-0.8,1.4c-0.4,0.4-0.8,0.8-1.4,1c-0.6,0.3-1.2,0.4-2,0.4h-6.7v5.4L-751.4,1657.1L-751.4,1657.1z
			 M-747.5,1648.2h6.7c0.2,0,0.4-0.1,0.5-0.2s0.2-0.3,0.2-0.6v-0.4c0-0.2-0.1-0.4-0.2-0.6c-0.1-0.1-0.3-0.2-0.5-0.2h-6.7V1648.2z"/>
		<path fill="#FFFFFF" d="M-733.2,1657.1v-14.2h9.9c0.8,0,1.5,0.1,2,0.4c0.6,0.3,1,0.6,1.4,1.1s0.6,0.9,0.8,1.4s0.2,1.1,0.2,1.6
			c0,0.4-0.1,0.8-0.2,1.3c-0.1,0.4-0.3,0.8-0.5,1.2c-0.2,0.4-0.5,0.7-0.9,1s-0.8,0.5-1.4,0.7l0,0l0,0l3.4,5.6h-4.3l-3.3-5.4h-3.4
			v5.4L-733.2,1657.1L-733.2,1657.1z M-729.3,1648.2h6.1c0.2,0,0.4-0.1,0.5-0.2s0.2-0.3,0.2-0.6v-0.4c0-0.2-0.1-0.4-0.2-0.6
			c-0.1-0.1-0.3-0.2-0.5-0.2h-6.1V1648.2z"/>
		<path fill="#FFFFFF" d="M-708.6,1642.6c1.3,0,2.3,0.2,3.3,0.7c0.9,0.4,1.7,1,2.3,1.8c0.6,0.7,1,1.5,1.3,2.4s0.4,1.7,0.4,2.6
			s-0.2,1.7-0.4,2.6c-0.3,0.9-0.7,1.7-1.3,2.4c-0.6,0.7-1.4,1.3-2.3,1.7c-0.9,0.4-2,0.7-3.3,0.7c-1.2,0-2.3-0.2-3.2-0.7
			c-0.9-0.4-1.7-1-2.3-1.7s-1-1.5-1.3-2.4s-0.4-1.7-0.4-2.6s0.2-1.7,0.4-2.6s0.7-1.7,1.3-2.4c0.6-0.7,1.4-1.3,2.3-1.8
			C-710.9,1642.8-709.8,1642.6-708.6,1642.6z M-708.6,1646.2c-0.6,0-1.1,0.1-1.5,0.3c-0.4,0.2-0.8,0.5-1,0.9
			c-0.3,0.4-0.5,0.8-0.6,1.2c-0.1,0.4-0.2,0.9-0.2,1.3s0.1,0.9,0.2,1.3c0.1,0.4,0.3,0.9,0.6,1.2c0.3,0.4,0.6,0.7,1,0.9
			s0.9,0.3,1.5,0.3s1.1-0.1,1.5-0.3s0.8-0.5,1-0.9c0.3-0.4,0.5-0.8,0.6-1.2c0.1-0.4,0.2-0.9,0.2-1.3s-0.1-0.9-0.2-1.3
			c-0.1-0.4-0.3-0.9-0.6-1.2c-0.3-0.4-0.6-0.7-1-0.9S-708,1646.2-708.6,1646.2z"/>
	</g>
	<g>
		<g>
			<path fill="#FFFFFF" d="M-771.7,1625v9.2H-787c-1.7,0-3-1.4-3-3.1v-15.3h9.2v6.6c0,1.4,1.2,2.6,2.6,2.6L-771.7,1625L-771.7,1625z
				"/>
		</g>
		<g>
			<path fill="#FFFFFF" d="M-762.5,1625h-9.2v-6.6c0-1.4-1.2-2.6-2.6-2.6h-6.6v-9.2h15.3c1.7,0,3,1.4,3,3.1L-762.5,1625L-762.5,1625
				z"/>
		</g>
	</g>
</g>
<g>
	<g>
		<path fill="#FFFFFF" d="M-576,1620.7h27.2v6.9h-19.6v3.9h18.3v6.9h-18.3v10.8h-7.7L-576,1620.7L-576,1620.7z"/>
		<path fill="#FFFFFF" d="M-542.1,1620.7h27.8v6.9h-20.1v3.9h18.8v6.9h-18.8v3.9h20.1v6.9h-27.8V1620.7z"/>
		<path fill="#FFFFFF" d="M-507.2,1620.7h7.7v21.6h15.4v6.9h-23.1V1620.7z"/>
		<path fill="#FFFFFF" d="M-477.9,1620.7h7.7v21.6h15.4v6.9h-23.1V1620.7z"/>
		<path fill="#FFFFFF" d="M-436.7,1620.2c2.5,0,4.7,0.4,6.5,1.3s3.4,2.1,4.6,3.5s2.1,3,2.7,4.8s0.9,3.5,0.9,5.2s-0.3,3.4-0.9,5.2
			s-1.5,3.3-2.7,4.8c-1.2,1.4-2.7,2.6-4.6,3.5c-1.8,0.9-4,1.3-6.5,1.3s-4.6-0.4-6.5-1.3c-1.8-0.9-3.4-2.1-4.6-3.5s-2.1-3-2.7-4.8
			s-0.9-3.5-0.9-5.2s0.3-3.4,0.9-5.2c0.6-1.7,1.5-3.3,2.7-4.8c1.2-1.4,2.7-2.6,4.6-3.5C-441.3,1620.7-439.1,1620.2-436.7,1620.2z
			 M-436.7,1627.3c-1.1,0-2.1,0.2-3,0.7s-1.5,1.1-2.1,1.8c-0.5,0.7-1,1.5-1.2,2.4c-0.3,0.9-0.4,1.8-0.4,2.7c0,0.9,0.1,1.8,0.4,2.7
			s0.7,1.7,1.2,2.4s1.2,1.3,2.1,1.8c0.8,0.5,1.8,0.7,3,0.7s2.2-0.2,3-0.7s1.5-1.1,2.1-1.8s1-1.5,1.2-2.4c0.3-0.9,0.4-1.8,0.4-2.7
			s-0.1-1.8-0.4-2.7s-0.7-1.7-1.2-2.4c-0.6-0.7-1.3-1.3-2.1-1.8C-434.5,1627.6-435.5,1627.3-436.7,1627.3z"/>
		<path fill="#FFFFFF" d="M-417.2,1620.7h7.6l2.6,15.3l3.8-11.3h6.9l4,11.4l2.4-15.4h7.6l-4.2,28.5h-7.4l-5.8-12.4l-5.8,12.4h-7.4
			L-417.2,1620.7z"/>
		<path fill="#FFFFFF" d="M-376.2,1649.2v-28.5h21.1c1.6,0,3,0.3,4.1,0.8s2.1,1.2,2.8,2.1s1.3,1.8,1.6,2.9c0.3,1.1,0.5,2.1,0.5,3.2
			s-0.2,2.1-0.5,3.1c-0.4,1-0.9,2-1.6,2.8s-1.7,1.5-2.8,2c-1.1,0.5-2.5,0.8-4,0.8h-13.4v10.8L-376.2,1649.2L-376.2,1649.2z
			 M-368.5,1631.5h13.4c0.4,0,0.7-0.1,0.9-0.4s0.3-0.7,0.3-1.1v-0.8c0-0.5-0.1-0.9-0.3-1.1c-0.2-0.3-0.5-0.4-0.9-0.4h-13.4V1631.5z"
			/>
		<path fill="#FFFFFF" d="M-339.8,1649.2v-28.5h19.8c1.6,0,3,0.3,4.1,0.8s2.1,1.2,2.8,2.1s1.3,1.8,1.6,2.9c0.3,1.1,0.5,2.1,0.5,3.2
			c0,0.8-0.1,1.7-0.3,2.5s-0.6,1.6-1,2.4s-1.1,1.4-1.8,2c-0.8,0.6-1.7,1-2.8,1.3l0,0l0,0l6.8,11.2h-8.7l-6.5-10.8h-6.7v10.8
			L-339.8,1649.2L-339.8,1649.2z M-332.1,1631.5h12.1c0.4,0,0.7-0.1,0.9-0.4s0.3-0.7,0.3-1.1v-0.8c0-0.5-0.1-0.9-0.3-1.1
			c-0.2-0.3-0.5-0.4-0.9-0.4h-12.1V1631.5z"/>
		<path fill="#FFFFFF" d="M-290.7,1620.2c2.5,0,4.7,0.4,6.5,1.3s3.4,2.1,4.6,3.5s2.1,3,2.7,4.8s0.9,3.5,0.9,5.2s-0.3,3.4-0.9,5.2
			s-1.5,3.3-2.7,4.8c-1.2,1.4-2.7,2.6-4.6,3.5c-1.8,0.9-4,1.3-6.5,1.3s-4.6-0.4-6.5-1.3c-1.8-0.9-3.4-2.1-4.6-3.5s-2.1-3-2.7-4.8
			s-0.9-3.5-0.9-5.2s0.3-3.4,0.9-5.2c0.6-1.7,1.5-3.3,2.7-4.8c1.2-1.4,2.7-2.6,4.6-3.5C-295.3,1620.7-293.2,1620.2-290.7,1620.2z
			 M-290.7,1627.3c-1.1,0-2.1,0.2-3,0.7s-1.5,1.1-2.1,1.8c-0.5,0.7-1,1.5-1.2,2.4c-0.3,0.9-0.4,1.8-0.4,2.7c0,0.9,0.1,1.8,0.4,2.7
			s0.7,1.7,1.2,2.4s1.2,1.3,2.1,1.8c0.8,0.5,1.8,0.7,3,0.7s2.2-0.2,3-0.7s1.5-1.1,2.1-1.8s1-1.5,1.2-2.4c0.3-0.9,0.4-1.8,0.4-2.7
			s-0.1-1.8-0.4-2.7s-0.7-1.7-1.2-2.4c-0.6-0.7-1.3-1.3-2.1-1.8C-288.5,1627.6-289.5,1627.3-290.7,1627.3z"/>
	</g>
	<g>
		<g>
			<path fill="#FFFFFF" d="M-416.8,1585v18.3h-30.6c-3.4,0-6.1-2.7-6.1-6.1v-30.6h18.3v13.2c0,2.9,2.3,5.2,5.2,5.2H-416.8z"/>
		</g>
		<g>
			<path fill="#FFFFFF" d="M-398.5,1585h-18.3v-13.2c0-2.9-2.3-5.2-5.2-5.2h-13.2v-18.3h30.6c3.4,0,6.1,2.7,6.1,6.1V1585
				L-398.5,1585z"/>
		</g>
	</g>
</g>
<g>
	<g>
		<path fill="#FFFFFF" d="M66,1708.4h54.5v13.8H81.4v7.7H118v13.8H81.4v21.6H66V1708.4z"/>
		<path fill="#FFFFFF" d="M133.8,1708.4h55.5v13.8h-40.2v7.7h37.6v13.8h-37.6v7.9h40.1v13.7h-55.5L133.8,1708.4L133.8,1708.4z"/>
		<path fill="#FFFFFF" d="M203.6,1708.4H219v43.2h30.9v13.7h-46.2L203.6,1708.4L203.6,1708.4z"/>
		<path fill="#FFFFFF" d="M262.1,1708.4h15.4v43.2h30.9v13.7h-46.2L262.1,1708.4L262.1,1708.4z"/>
		<path fill="#FFFFFF" d="M344.7,1707.4c5,0,9.4,0.9,13.1,2.7c3.7,1.8,6.7,4.1,9.1,7s4.2,6,5.4,9.5c1.2,3.5,1.8,6.9,1.8,10.3
			s-0.6,6.8-1.8,10.3s-3,6.7-5.4,9.5s-5.5,5.2-9.1,6.9c-3.7,1.8-8,2.7-13.1,2.7c-5,0-9.3-0.9-13-2.7c-3.7-1.8-6.7-4.1-9.1-6.9
			s-4.2-6-5.4-9.5c-1.2-3.5-1.8-7-1.8-10.3c0-3.4,0.6-6.8,1.8-10.3s3-6.7,5.4-9.5s5.5-5.2,9.1-7S339.7,1707.4,344.7,1707.4z
			 M344.7,1721.7c-2.3,0-4.3,0.5-6,1.4s-3.1,2.2-4.2,3.6c-1.1,1.5-1.9,3.1-2.4,4.9s-0.8,3.6-0.8,5.4s0.3,3.6,0.8,5.4
			s1.4,3.4,2.4,4.9c1.1,1.5,2.5,2.7,4.2,3.6s3.7,1.4,6,1.4c2.4,0,4.4-0.5,6-1.4s3.1-2.1,4.2-3.6s1.9-3.1,2.5-4.9
			c0.5-1.8,0.8-3.6,0.8-5.4s-0.3-3.6-0.8-5.4s-1.4-3.4-2.5-4.9s-2.5-2.7-4.2-3.6C349,1722.1,347,1721.7,344.7,1721.7z"/>
		<path fill="#FFFFFF" d="M383.5,1708.4h15.2l5.2,30.6l7.6-22.7h13.8l8.1,22.7l4.7-30.7h15.2l-8.4,57h-14.8l-11.7-24.8l-11.6,24.8
			H392L383.5,1708.4z"/>
		<path fill="#FFFFFF" d="M465.6,1765.4v-57h42.2c3.2,0,5.9,0.5,8.2,1.6s4.1,2.5,5.6,4.2s2.5,3.6,3.2,5.8c0.7,2.1,1,4.2,1,6.3
			s-0.4,4.2-1.1,6.3c-0.7,2.1-1.8,3.9-3.3,5.6s-3.3,3-5.6,4s-4.9,1.5-8,1.5h-26.9v21.6L465.6,1765.4L465.6,1765.4z M480.9,1730h26.9
			c0.8,0,1.4-0.3,1.9-0.8s0.7-1.3,0.7-2.3v-1.5c0-1-0.2-1.7-0.7-2.3s-1.1-0.8-1.9-0.8h-26.9V1730z"/>
		<path fill="#FFFFFF" d="M538.4,1765.4v-57H578c3.2,0,5.9,0.5,8.2,1.6s4.1,2.5,5.6,4.2s2.5,3.6,3.2,5.8c0.7,2.1,1,4.2,1,6.3
			c0,1.7-0.2,3.3-0.7,5s-1.2,3.3-2.1,4.8c-0.9,1.5-2.2,2.9-3.7,4s-3.4,2.1-5.5,2.7c0,0.1,0,0.1,0,0.1s0,0,0,0.1l13.6,22.3h-17.3
			l-13-21.6h-13.5v21.6L538.4,1765.4L538.4,1765.4z M553.8,1730h24.3c0.8,0,1.4-0.3,1.9-0.8s0.7-1.3,0.7-2.3v-1.5
			c0-1-0.2-1.7-0.7-2.3s-1.1-0.8-1.9-0.8h-24.3V1730z"/>
		<path fill="#FFFFFF" d="M636.7,1707.4c5,0,9.4,0.9,13.1,2.7c3.7,1.8,6.7,4.1,9.1,7c2.4,2.9,4.2,6,5.4,9.5s1.8,6.9,1.8,10.3
			s-0.6,6.8-1.8,10.3s-3,6.7-5.4,9.5s-5.5,5.2-9.1,6.9c-3.7,1.8-8,2.7-13.1,2.7c-5,0-9.3-0.9-13-2.7c-3.7-1.8-6.7-4.1-9.1-6.9
			s-4.2-6-5.4-9.5s-1.8-7-1.8-10.3c0-3.4,0.6-6.8,1.8-10.3s3-6.7,5.4-9.5c2.4-2.9,5.5-5.2,9.1-7S631.7,1707.4,636.7,1707.4z
			 M636.7,1721.7c-2.3,0-4.3,0.5-6,1.4s-3.1,2.2-4.2,3.6c-1.1,1.5-1.9,3.1-2.4,4.9s-0.8,3.6-0.8,5.4s0.3,3.6,0.8,5.4
			s1.4,3.4,2.4,4.9c1.1,1.5,2.5,2.7,4.2,3.6s3.7,1.4,6,1.4s4.4-0.5,6-1.4s3.1-2.1,4.2-3.6c1.1-1.5,1.9-3.1,2.5-4.9
			c0.5-1.8,0.8-3.6,0.8-5.4s-0.3-3.6-0.8-5.4s-1.4-3.4-2.5-4.9s-2.5-2.7-4.2-3.6C641,1722.1,639,1721.7,636.7,1721.7z"/>
	</g>
	<g>
		<g>
			<path fill="#FFFFFF" d="M384.4,1636.9v36.6h-61.2c-6.7,0-12.2-5.5-12.2-12.2v-61.2h36.6v26.4c0,5.8,4.7,10.4,10.4,10.4
				L384.4,1636.9L384.4,1636.9z"/>
		</g>
		<g>
			<path fill="#FFFFFF" d="M421,1636.9h-36.6v-26.4c0-5.8-4.7-10.4-10.4-10.4h-26.4v-36.6h61.2c6.7,0,12.2,5.5,12.2,12.2L421,1636.9
				L421,1636.9z"/>
		</g>
	</g>
</g>
<g>
	<g>
		<path fill="#2389AF" d="M-1849.7,1298.2h58.9v14.9h-42.3v8.3h39.5v14.9h-39.5v23.4h-16.6V1298.2L-1849.7,1298.2z"/>
		<path fill="#2389AF" d="M-1776.4,1298.2h60v14.9h-43.4v8.3h40.6v14.9h-40.6v8.5h43.4v14.8h-60V1298.2z"/>
		<path fill="#2389AF" d="M-1700.9,1298.2h16.6v46.8h33.4v14.8h-50V1298.2L-1700.9,1298.2z"/>
		<path fill="#2389AF" d="M-1637.7,1298.2h16.6v46.8h33.4v14.8h-50V1298.2L-1637.7,1298.2z"/>
		<path fill="#2389AF" d="M-1548.4,1297.1c5.4,0,10.2,1,14.2,2.9s7.3,4.5,9.9,7.6s4.5,6.5,5.8,10.3s1.9,7.5,1.9,11.1
			s-0.6,7.4-1.9,11.2s-3.2,7.2-5.8,10.3c-2.6,3.1-5.9,5.6-9.9,7.5s-8.7,2.9-14.2,2.9c-5.4,0-10.1-1-14.1-2.9s-7.3-4.4-9.9-7.5
			s-4.5-6.5-5.8-10.3s-1.9-7.5-1.9-11.2s0.6-7.4,1.9-11.1s3.2-7.2,5.8-10.3c2.6-3.1,5.9-5.6,9.9-7.6
			C-1558.5,1298.1-1553.8,1297.1-1548.4,1297.1z M-1548.4,1312.5c-2.5,0-4.6,0.5-6.4,1.5s-3.3,2.3-4.5,3.9s-2.1,3.3-2.6,5.3
			c-0.6,1.9-0.9,3.9-0.9,5.8s0.3,3.8,0.9,5.8c0.6,1.9,1.5,3.7,2.6,5.3c1.2,1.6,2.7,2.9,4.5,3.8c1.8,1,4,1.5,6.4,1.5
			c2.5,0,4.7-0.5,6.5-1.5s3.3-2.3,4.6-3.8c1.2-1.6,2.1-3.3,2.7-5.3c0.6-1.9,0.9-3.9,0.9-5.8s-0.3-3.8-0.9-5.8
			c-0.6-1.9-1.5-3.7-2.7-5.3c-1.2-1.6-2.7-2.9-4.6-3.9C-1543.7,1313-1545.9,1312.5-1548.4,1312.5z"/>
		<path fill="#2389AF" d="M-1506.4,1298.2h16.4l5.7,33.1l8.3-24.5h14.9l8.7,24.6l5.1-33.2h16.4l-9.1,61.6h-16.1l-12.6-26.8
			l-12.5,26.8h-16.1L-1506.4,1298.2z"/>
		<path fill="#2389AF" d="M-1417.7,1359.8v-61.6h45.6c3.5,0,6.4,0.6,8.9,1.8c2.4,1.2,4.4,2.7,6,4.6c1.6,1.8,2.7,3.9,3.4,6.2
			c0.7,2.3,1.1,4.6,1.1,6.9s-0.4,4.6-1.2,6.8c-0.8,2.2-1.9,4.2-3.5,6s-3.6,3.2-6,4.4c-2.4,1.1-5.3,1.7-8.7,1.7h-29v23.4
			L-1417.7,1359.8L-1417.7,1359.8z M-1401.1,1321.5h29c0.9,0,1.5-0.3,2-0.9s0.7-1.4,0.7-2.5v-1.7c0-1.1-0.2-1.9-0.7-2.5
			s-1.2-0.9-2-0.9h-29V1321.5z"/>
		<path fill="#2389AF" d="M-1338.9,1359.8v-61.6h42.9c3.5,0,6.4,0.6,8.9,1.8c2.4,1.2,4.4,2.7,6,4.6c1.6,1.8,2.7,3.9,3.4,6.2
			c0.7,2.3,1.1,4.6,1.1,6.9c0,1.8-0.2,3.6-0.7,5.4s-1.2,3.6-2.3,5.2c-1,1.6-2.3,3.1-4,4.4s-3.6,2.2-6,2.9c0,0.1,0,0.1,0.1,0.1
			c0,0,0.1,0,0.1,0.1l14.7,24.1h-18.7l-14.1-23.4h-14.6v23.4L-1338.9,1359.8L-1338.9,1359.8z M-1322.3,1321.5h26.2
			c0.9,0,1.5-0.3,2-0.9s0.7-1.4,0.7-2.5v-1.7c0-1.1-0.2-1.9-0.7-2.5s-1.2-0.9-2-0.9h-26.2V1321.5z"/>
		<path fill="#2389AF" d="M-1232.7,1297.1c5.4,0,10.2,1,14.2,2.9s7.3,4.5,9.9,7.6s4.5,6.5,5.8,10.3s1.9,7.5,1.9,11.1
			s-0.6,7.4-1.9,11.2s-3.2,7.2-5.8,10.3c-2.6,3.1-5.9,5.6-9.9,7.5s-8.7,2.9-14.2,2.9c-5.4,0-10.1-1-14.1-2.9s-7.3-4.4-9.9-7.5
			s-4.5-6.5-5.8-10.3s-1.9-7.5-1.9-11.2s0.6-7.4,1.9-11.1s3.2-7.2,5.8-10.3c2.6-3.1,5.9-5.6,9.9-7.6
			C-1242.8,1298.1-1238.1,1297.1-1232.7,1297.1z M-1232.7,1312.5c-2.5,0-4.6,0.5-6.4,1.5s-3.3,2.3-4.5,3.9s-2.1,3.3-2.6,5.3
			c-0.6,1.9-0.9,3.9-0.9,5.8s0.3,3.8,0.9,5.8c0.6,1.9,1.5,3.7,2.6,5.3c1.2,1.6,2.7,2.9,4.5,3.8c1.8,1,4,1.5,6.4,1.5
			c2.5,0,4.7-0.5,6.5-1.5s3.3-2.3,4.6-3.8c1.2-1.6,2.1-3.3,2.7-5.3c0.6-1.9,0.9-3.9,0.9-5.8s-0.3-3.8-0.9-5.8
			c-0.6-1.9-1.5-3.7-2.7-5.3c-1.2-1.6-2.7-2.9-4.6-3.9C-1228,1313-1230.2,1312.5-1232.7,1312.5z"/>
	</g>
	<g>
		<path fill="#2389AF" d="M-1921.6,1348.9v39.6h-66.2c-7.3,0-13.2-5.9-13.2-13.2v-66.2h39.6v28.5c0,6.2,5.1,11.3,11.3,11.3
			L-1921.6,1348.9L-1921.6,1348.9z"/>
	</g>
	<g>
		<path fill="#2389AF" d="M-1882.1,1348.9h-39.6v-28.5c0-6.2-5.1-11.3-11.3-11.3h-28.5v-39.6h66.2c7.3,0,13.2,5.9,13.2,13.2
			L-1882.1,1348.9L-1882.1,1348.9z"/>
	</g>
</g>
<g>
	<g>
		<g>
			<path fill="#2389AF" d="M-2451.8,899.1v99.8h-166.9c-18.4,0-33.3-14.9-33.3-33.3V798.7h99.8v71.9c0,15.7,12.8,28.5,28.5,28.5
				L-2451.8,899.1L-2451.8,899.1z"/>
		</g>
	</g>
	<g>
		<g>
			<path fill="#2389AF" d="M-2352,899.1h-99.8v-71.9c0-15.7-12.8-28.5-28.5-28.5h-71.9v-99.8h166.9c18.4,0,33.3,14.9,33.3,33.3
				V899.1z"/>
		</g>
	</g>
</g>
<g>
	<g>
		<g>
			<path fill="#2389AF" d="M-1503.8,676.1V909h-389.5c-42.9,0-77.6-34.7-77.6-77.6V441.8h232.9v167.8c0,36.7,29.8,66.5,66.4,66.5
				H-1503.8L-1503.8,676.1z"/>
		</g>
	</g>
	<g>
		<g>
			<path fill="#2389AF" d="M-1271,676.1h-232.9V508.3c0-36.7-29.8-66.4-66.4-66.4h-167.8V209h389.5c42.9,0,77.6,34.7,77.6,77.6
				L-1271,676.1L-1271,676.1z"/>
		</g>
	</g>
</g>
<g>
	<g>
		<g>
			<path fill="#2389AF" d="M-2901.6,1019.1v39.9h-66.8c-7.4,0-13.3-6-13.3-13.3v-66.8h39.9v28.8c0,6.3,5.1,11.4,11.4,11.4H-2901.6
				L-2901.6,1019.1z"/>
		</g>
	</g>
	<g>
		<g>
			<path fill="#2389AF" d="M-2861.7,1019.1h-39.9v-28.8c0-6.3-5.1-11.4-11.4-11.4h-28.8V939h66.8c7.4,0,13.3,6,13.3,13.3
				L-2861.7,1019.1L-2861.7,1019.1z"/>
		</g>
	</g>
</g>
<g>
	<g>
		<path fill="#2389AF" d="M-2621,1379.6h29.4v7.5h-21.1v4.2h19.8v7.5h-19.8v11.7h-8.3L-2621,1379.6L-2621,1379.6z"/>
		<path fill="#2389AF" d="M-2584.4,1379.6h30v7.5h-21.7v4.2h20.3v7.5h-20.3v4.3h21.7v7.4h-30V1379.6z"/>
		<path fill="#2389AF" d="M-2546.6,1379.6h8.3v23.4h16.7v7.4h-25V1379.6z"/>
		<path fill="#2389AF" d="M-2515,1379.6h8.3v23.4h16.7v7.4h-25V1379.6z"/>
		<path fill="#2389AF" d="M-2470.4,1379c2.7,0,5.1,0.5,7.1,1.5s3.6,2.2,4.9,3.8s2.3,3.3,2.9,5.2c0.6,1.9,0.9,3.7,0.9,5.6
			c0,1.8-0.3,3.7-0.9,5.6s-1.6,3.6-2.9,5.2c-1.3,1.5-2.9,2.8-4.9,3.8s-4.4,1.5-7.1,1.5c-2.7,0-5-0.5-7-1.5s-3.6-2.2-4.9-3.8
			s-2.3-3.2-2.9-5.2s-0.9-3.8-0.9-5.6c0-1.8,0.3-3.7,0.9-5.6c0.6-1.9,1.6-3.6,2.9-5.2c1.3-1.6,2.9-2.8,4.9-3.8
			S-2473.1,1379-2470.4,1379z M-2470.4,1386.7c-1.2,0-2.3,0.3-3.2,0.8s-1.7,1.2-2.2,1.9c-0.6,0.8-1,1.7-1.3,2.6s-0.4,1.9-0.4,2.9
			s0.1,1.9,0.4,2.9c0.3,1,0.7,1.9,1.3,2.6c0.6,0.8,1.3,1.4,2.2,1.9s2,0.7,3.2,0.7c1.3,0,2.4-0.2,3.3-0.7s1.7-1.1,2.3-1.9
			s1.1-1.7,1.4-2.6c0.3-1,0.4-1.9,0.4-2.9s-0.1-1.9-0.4-2.9c-0.3-1-0.7-1.9-1.4-2.6c-0.6-0.8-1.4-1.4-2.3-1.9
			S-2469.1,1386.7-2470.4,1386.7z"/>
		<path fill="#2389AF" d="M-2449.4,1379.6h8.2l2.8,16.6l4.1-12.2h7.5l4.4,12.3l2.6-16.6h8.2l-4.6,30.8h-8l-6.3-13.4l-6.3,13.4h-8
			L-2449.4,1379.6z"/>
		<path fill="#2389AF" d="M-2405,1410.4v-30.8h22.8c1.7,0,3.2,0.3,4.4,0.9s2.2,1.3,3,2.3c0.8,0.9,1.4,2,1.7,3.1
			c0.4,1.1,0.5,2.3,0.5,3.4s-0.2,2.3-0.6,3.4c-0.4,1.1-1,2.1-1.8,3s-1.8,1.6-3,2.2s-2.7,0.8-4.3,0.8h-14.5v11.7H-2405z
			 M-2396.7,1391.2h14.5c0.4,0,0.8-0.2,1-0.4c0.2-0.3,0.4-0.7,0.4-1.2v-0.8c0-0.5-0.1-0.9-0.4-1.2c-0.2-0.3-0.6-0.4-1-0.4h-14.5
			V1391.2z"/>
		<path fill="#2389AF" d="M-2365.6,1410.4v-30.8h21.4c1.7,0,3.2,0.3,4.4,0.9s2.2,1.3,3,2.3c0.8,0.9,1.4,2,1.7,3.1
			c0.4,1.1,0.5,2.3,0.5,3.4c0,0.9-0.1,1.8-0.4,2.7c-0.2,0.9-0.6,1.8-1.1,2.6s-1.2,1.6-2,2.2s-1.8,1.1-3,1.5v0.1c0,0,0,0,0,0.1
			l7.3,12.1h-9.4l-7.1-11.7h-7.3v11.7L-2365.6,1410.4L-2365.6,1410.4z M-2357.3,1391.2h13.1c0.4,0,0.8-0.2,1-0.4
			c0.2-0.3,0.4-0.7,0.4-1.2v-0.8c0-0.5-0.1-0.9-0.4-1.2c-0.2-0.3-0.6-0.4-1-0.4h-13.1V1391.2z"/>
		<path fill="#2389AF" d="M-2312.5,1379c2.7,0,5.1,0.5,7.1,1.5s3.6,2.2,4.9,3.8s2.3,3.3,2.9,5.2c0.6,1.9,0.9,3.7,0.9,5.6
			c0,1.8-0.3,3.7-0.9,5.6s-1.6,3.6-2.9,5.2c-1.3,1.5-2.9,2.8-4.9,3.8s-4.4,1.5-7.1,1.5c-2.7,0-5-0.5-7-1.5s-3.6-2.2-4.9-3.8
			s-2.3-3.2-2.9-5.2s-0.9-3.8-0.9-5.6c0-1.8,0.3-3.7,0.9-5.6c0.6-1.9,1.6-3.6,2.9-5.2c1.3-1.6,2.9-2.8,4.9-3.8
			C-2317.6,1379.5-2315.2,1379-2312.5,1379z M-2312.5,1386.7c-1.2,0-2.3,0.3-3.2,0.8s-1.7,1.2-2.2,1.9c-0.6,0.8-1,1.7-1.3,2.6
			s-0.4,1.9-0.4,2.9s0.1,1.9,0.4,2.9c0.3,1,0.7,1.9,1.3,2.6c0.6,0.8,1.3,1.4,2.2,1.9s2,0.7,3.2,0.7c1.3,0,2.4-0.2,3.3-0.7
			s1.7-1.1,2.3-1.9s1.1-1.7,1.4-2.6c0.3-1,0.4-1.9,0.4-2.9s-0.1-1.9-0.4-2.9c-0.3-1-0.7-1.9-1.4-2.6c-0.6-0.8-1.4-1.4-2.3-1.9
			C-2310.2,1387-2311.3,1386.7-2312.5,1386.7z"/>
	</g>
	<g>
		<path fill="#2389AF" d="M-2657,1404.9v19.8h-33.1c-3.6,0-6.6-2.9-6.6-6.6V1385h19.8v14.3c0,3.1,2.5,5.7,5.6,5.7L-2657,1404.9
			L-2657,1404.9z"/>
	</g>
	<g>
		<path fill="#2389AF" d="M-2637.2,1404.9h-19.8v-14.3c0-3.1-2.5-5.7-5.6-5.7h-14.3v-19.8h33.1c3.6,0,6.6,2.9,6.6,6.6V1404.9
			L-2637.2,1404.9z"/>
	</g>
</g>
<g>
	<g>
		<path fill="#2389AF" d="M-2977.2,1421.1h13.2v3.4h-9.5v1.9h8.9v3.4h-8.9v5.3h-3.7V1421.1L-2977.2,1421.1z"/>
		<path fill="#2389AF" d="M-2960.7,1421.1h13.5v3.4h-9.8v1.9h9.1v3.4h-9.1v1.9h9.8v3.3h-13.5V1421.1z"/>
		<path fill="#2389AF" d="M-2943.7,1421.1h3.7v10.5h7.5v3.3h-11.2V1421.1z"/>
		<path fill="#2389AF" d="M-2929.5,1421.1h3.7v10.5h7.5v3.3h-11.2V1421.1z"/>
		<path fill="#2389AF" d="M-2909.4,1420.8c1.2,0,2.3,0.2,3.2,0.7s1.6,1,2.2,1.7c0.6,0.7,1,1.5,1.3,2.3s0.4,1.7,0.4,2.5
			s-0.1,1.7-0.4,2.5s-0.7,1.6-1.3,2.3s-1.3,1.2-2.2,1.7s-2,0.7-3.2,0.7s-2.3-0.2-3.2-0.7s-1.6-1-2.2-1.7s-1-1.5-1.3-2.3
			c-0.3-0.9-0.4-1.7-0.4-2.5s0.1-1.7,0.4-2.5c0.3-0.8,0.7-1.6,1.3-2.3s1.3-1.3,2.2-1.7S-2910.6,1420.8-2909.4,1420.8z
			 M-2909.4,1424.3c-0.6,0-1,0.1-1.4,0.3s-0.8,0.5-1,0.9c-0.3,0.3-0.5,0.8-0.6,1.2c-0.1,0.4-0.2,0.9-0.2,1.3s0.1,0.9,0.2,1.3
			c0.1,0.4,0.3,0.8,0.6,1.2c0.3,0.3,0.6,0.6,1,0.9c0.4,0.2,0.9,0.3,1.4,0.3c0.6,0,1.1-0.1,1.5-0.3s0.8-0.5,1-0.9
			c0.3-0.3,0.5-0.8,0.6-1.2c0.1-0.4,0.2-0.9,0.2-1.3s-0.1-0.9-0.2-1.3c-0.1-0.4-0.3-0.8-0.6-1.2c-0.3-0.3-0.6-0.7-1-0.9
			C-2908.4,1424.4-2908.9,1424.3-2909.4,1424.3z"/>
		<path fill="#2389AF" d="M-2900,1421.1h3.7l1.3,7.4l1.9-5.5h3.4l2,5.5l1.1-7.5h3.7l-2.1,13.9h-3.6l-2.8-6l-2.8,6h-3.6L-2900,1421.1
			z"/>
		<path fill="#2389AF" d="M-2880,1434.9V1421h10.3c0.8,0,1.4,0.1,2,0.4s1,0.6,1.4,1s0.6,0.9,0.8,1.4s0.2,1,0.2,1.5s-0.1,1-0.3,1.5
			s-0.4,0.9-0.8,1.4c-0.4,0.4-0.8,0.7-1.4,1s-1.2,0.4-1.9,0.4h-6.5v5.3L-2880,1434.9L-2880,1434.9z M-2876.3,1426.3h6.5
			c0.2,0,0.4-0.1,0.5-0.2s0.2-0.3,0.2-0.6v-0.4c0-0.2-0.1-0.4-0.2-0.6c-0.1-0.1-0.3-0.2-0.5-0.2h-6.5V1426.3z"/>
		<path fill="#2389AF" d="M-2862.3,1434.9V1421h9.6c0.8,0,1.4,0.1,2,0.4s1,0.6,1.4,1s0.6,0.9,0.8,1.4s0.2,1,0.2,1.5
			c0,0.4-0.1,0.8-0.2,1.2c-0.1,0.4-0.3,0.8-0.5,1.2s-0.5,0.7-0.9,1s-0.8,0.5-1.4,0.7l0,0l0,0l3.3,5.4h-4.2l-3.2-5.3h-3.3v5.3
			L-2862.3,1434.9L-2862.3,1434.9z M-2858.6,1426.3h5.9c0.2,0,0.4-0.1,0.5-0.2s0.2-0.3,0.2-0.6v-0.4c0-0.2-0.1-0.4-0.2-0.6
			c-0.1-0.1-0.3-0.2-0.5-0.2h-5.9V1426.3z"/>
		<path fill="#2389AF" d="M-2838.4,1420.8c1.2,0,2.3,0.2,3.2,0.7s1.6,1,2.2,1.7c0.6,0.7,1,1.5,1.3,2.3s0.4,1.7,0.4,2.5
			s-0.1,1.7-0.4,2.5s-0.7,1.6-1.3,2.3s-1.3,1.2-2.2,1.7s-2,0.7-3.2,0.7s-2.3-0.2-3.2-0.7c-0.9-0.4-1.6-1-2.2-1.7s-1-1.5-1.3-2.3
			c-0.3-0.9-0.4-1.7-0.4-2.5s0.1-1.7,0.4-2.5c0.3-0.8,0.7-1.6,1.3-2.3s1.3-1.3,2.2-1.7C-2840.6,1421-2839.6,1420.8-2838.4,1420.8z
			 M-2838.4,1424.3c-0.6,0-1,0.1-1.4,0.3s-0.8,0.5-1,0.9c-0.3,0.3-0.5,0.8-0.6,1.2c-0.1,0.4-0.2,0.9-0.2,1.3s0.1,0.9,0.2,1.3
			c0.1,0.4,0.3,0.8,0.6,1.2c0.3,0.3,0.6,0.6,1,0.9c0.4,0.2,0.9,0.3,1.4,0.3c0.6,0,1.1-0.1,1.5-0.3s0.8-0.5,1-0.9
			c0.3-0.3,0.5-0.8,0.6-1.2c0.1-0.4,0.2-0.9,0.2-1.3s-0.1-0.9-0.2-1.3c-0.1-0.4-0.3-0.8-0.6-1.2c-0.3-0.3-0.6-0.7-1-0.9
			C-2837.3,1424.4-2837.8,1424.3-2838.4,1424.3z"/>
	</g>
	<g>
		<path fill="#2389AF" d="M-2993.4,1432.5v8.9h-14.9c-1.6,0-3-1.3-3-3v-14.9h8.9v6.4c0,1.4,1.1,2.5,2.5,2.5L-2993.4,1432.5
			L-2993.4,1432.5z"/>
	</g>
	<g>
		<path fill="#2389AF" d="M-2984.5,1432.5h-8.9v-6.4c0-1.4-1.1-2.5-2.5-2.5h-6.4v-8.9h14.9c1.6,0,3,1.3,3,3v14.8H-2984.5z"/>
	</g>
</g>
<g>
	<g>
		<path fill="#2389AF" d="M-3012.2,1661.9h13.6v3.4h-9.8v1.9h9.1v3.4h-9.1v5.4h-3.8V1661.9z"/>
		<path fill="#2389AF" d="M-2995.3,1661.9h13.9v3.4h-10v1.9h9.4v3.4h-9.4v2h10v3.4h-13.9V1661.9z"/>
		<path fill="#2389AF" d="M-2977.8,1661.9h3.8v10.8h7.7v3.4h-11.6v-14.2H-2977.8z"/>
		<path fill="#2389AF" d="M-2963.2,1661.9h3.8v10.8h7.7v3.4h-11.6v-14.2H-2963.2z"/>
		<path fill="#2389AF" d="M-2942.6,1661.6c1.3,0,2.4,0.2,3.3,0.7c0.9,0.4,1.7,1,2.3,1.8s1.1,1.5,1.3,2.4s0.4,1.7,0.4,2.6
			s-0.1,1.7-0.4,2.6c-0.3,0.9-0.7,1.7-1.3,2.4s-1.4,1.3-2.3,1.7s-2,0.7-3.3,0.7c-1.2,0-2.3-0.2-3.2-0.7c-0.9-0.4-1.7-1-2.3-1.7
			s-1.1-1.5-1.3-2.4s-0.4-1.7-0.4-2.6s0.1-1.7,0.4-2.6s0.7-1.7,1.3-2.4s1.4-1.3,2.3-1.8C-2944.9,1661.8-2943.8,1661.6-2942.6,1661.6
			z M-2942.6,1665.2c-0.6,0-1.1,0.1-1.5,0.3c-0.4,0.2-0.8,0.5-1,0.9s-0.5,0.8-0.6,1.2c-0.1,0.4-0.2,0.9-0.2,1.3s0.1,0.9,0.2,1.3
			c0.1,0.4,0.3,0.9,0.6,1.2s0.6,0.7,1,0.9s0.9,0.3,1.5,0.3s1.1-0.1,1.5-0.3s0.8-0.5,1.1-0.9s0.5-0.8,0.6-1.2
			c0.1-0.4,0.2-0.9,0.2-1.3s-0.1-0.9-0.2-1.3c-0.1-0.4-0.3-0.9-0.6-1.2s-0.6-0.7-1.1-0.9C-2941.5,1665.3-2942,1665.2-2942.6,1665.2z
			"/>
		<path fill="#2389AF" d="M-2932.9,1661.9h3.8l1.3,7.7l1.9-5.7h3.4l2,5.7l1.2-7.7h3.8l-2.1,14.2h-3.7l-2.9-6.2l-2.9,6.2h-3.7
			L-2932.9,1661.9z"/>
		<path fill="#2389AF" d="M-2912.4,1676.1v-14.2h10.6c0.8,0,1.5,0.1,2.1,0.4s1,0.6,1.4,1.1c0.4,0.4,0.6,0.9,0.8,1.4s0.2,1.1,0.2,1.6
			s-0.1,1.1-0.3,1.6s-0.4,1-0.8,1.4c-0.4,0.4-0.8,0.8-1.4,1c-0.6,0.3-1.2,0.4-2,0.4h-6.7v5.4L-2912.4,1676.1L-2912.4,1676.1z
			 M-2908.5,1667.2h6.7c0.2,0,0.4-0.1,0.5-0.2s0.2-0.3,0.2-0.6v-0.4c0-0.2-0.1-0.4-0.2-0.6c-0.1-0.1-0.3-0.2-0.5-0.2h-6.7V1667.2z"
			/>
		<path fill="#2389AF" d="M-2894.1,1676.1v-14.2h9.9c0.8,0,1.5,0.1,2.1,0.4s1,0.6,1.4,1.1c0.4,0.4,0.6,0.9,0.8,1.4s0.2,1.1,0.2,1.6
			c0,0.4-0.1,0.8-0.2,1.3c-0.1,0.4-0.3,0.8-0.5,1.2s-0.5,0.7-0.9,1s-0.8,0.5-1.4,0.7l0,0l0,0l3.4,5.6h-4.3l-3.3-5.4h-3.4v5.4
			L-2894.1,1676.1L-2894.1,1676.1z M-2890.3,1667.2h6.1c0.2,0,0.4-0.1,0.5-0.2s0.2-0.3,0.2-0.6v-0.4c0-0.2-0.1-0.4-0.2-0.6
			c-0.1-0.1-0.3-0.2-0.5-0.2h-6.1V1667.2z"/>
		<path fill="#2389AF" d="M-2869.6,1661.6c1.3,0,2.4,0.2,3.3,0.7c0.9,0.4,1.7,1,2.3,1.8s1.1,1.5,1.3,2.4s0.4,1.7,0.4,2.6
			s-0.1,1.7-0.4,2.6c-0.3,0.9-0.7,1.7-1.3,2.4s-1.4,1.3-2.3,1.7s-2,0.7-3.3,0.7c-1.2,0-2.3-0.2-3.2-0.7c-0.9-0.4-1.7-1-2.3-1.7
			s-1.1-1.5-1.3-2.4s-0.4-1.7-0.4-2.6s0.1-1.7,0.4-2.6s0.7-1.7,1.3-2.4s1.4-1.3,2.3-1.8C-2871.9,1661.8-2870.8,1661.6-2869.6,1661.6
			z M-2869.6,1665.2c-0.6,0-1.1,0.1-1.5,0.3c-0.4,0.2-0.8,0.5-1,0.9s-0.5,0.8-0.6,1.2c-0.1,0.4-0.2,0.9-0.2,1.3s0.1,0.9,0.2,1.3
			c0.1,0.4,0.3,0.9,0.6,1.2s0.6,0.7,1,0.9s0.9,0.3,1.5,0.3s1.1-0.1,1.5-0.3s0.8-0.5,1.1-0.9s0.5-0.8,0.6-1.2
			c0.1-0.4,0.2-0.9,0.2-1.3s-0.1-0.9-0.2-1.3c-0.1-0.4-0.3-0.9-0.6-1.2s-0.6-0.7-1.1-0.9C-2868.5,1665.3-2869,1665.2-2869.6,1665.2z
			"/>
	</g>
	<g>
		<g>
			<path fill="#2389AF" d="M-2932.6,1644v9.2h-15.3c-1.7,0-3.1-1.4-3.1-3.1v-15.3h9.1v6.6c0,1.4,1.2,2.6,2.6,2.6L-2932.6,1644
				L-2932.6,1644z"/>
		</g>
		<g>
			<path fill="#2389AF" d="M-2923.5,1644h-9.1v-6.6c0-1.4-1.2-2.6-2.6-2.6h-6.6v-9.2h15.3c1.7,0,3.1,1.4,3.1,3.1L-2923.5,1644
				L-2923.5,1644z"/>
		</g>
	</g>
</g>
<g>
	<g>
		<path fill="#2389AF" d="M-2737,1639.7h27.2v6.9h-19.6v3.9h18.3v6.9h-18.3v10.8h-7.7v-28.5H-2737z"/>
		<path fill="#2389AF" d="M-2703.1,1639.7h27.8v6.9h-20.1v3.9h18.8v6.9h-18.8v3.9h20.1v6.9h-27.8V1639.7z"/>
		<path fill="#2389AF" d="M-2668.2,1639.7h7.7v21.6h15.4v6.9h-23.1L-2668.2,1639.7L-2668.2,1639.7z"/>
		<path fill="#2389AF" d="M-2638.9,1639.7h7.7v21.6h15.4v6.9h-23.1L-2638.9,1639.7L-2638.9,1639.7z"/>
		<path fill="#2389AF" d="M-2597.7,1639.2c2.5,0,4.7,0.4,6.5,1.3s3.4,2.1,4.6,3.5s2.1,3,2.7,4.8c0.6,1.7,0.9,3.5,0.9,5.2
			s-0.3,3.4-0.9,5.2c-0.6,1.8-1.5,3.3-2.7,4.8c-1.2,1.4-2.7,2.6-4.6,3.5s-4,1.3-6.5,1.3s-4.6-0.4-6.5-1.3c-1.8-0.9-3.4-2.1-4.6-3.5
			c-1.2-1.4-2.1-3-2.7-4.8c-0.6-1.8-0.9-3.5-0.9-5.2s0.3-3.4,0.9-5.2c0.6-1.7,1.5-3.3,2.7-4.8s2.7-2.6,4.6-3.5
			C-2602.3,1639.7-2600.1,1639.2-2597.7,1639.2z M-2597.7,1646.3c-1.1,0-2.1,0.2-3,0.7s-1.5,1.1-2.1,1.8c-0.5,0.7-0.9,1.5-1.2,2.4
			s-0.4,1.8-0.4,2.7c0,0.9,0.1,1.8,0.4,2.7s0.7,1.7,1.2,2.4s1.2,1.3,2.1,1.8c0.8,0.5,1.8,0.7,3,0.7s2.2-0.2,3-0.7s1.5-1.1,2.1-1.8
			s1-1.5,1.2-2.4c0.3-0.9,0.4-1.8,0.4-2.7s-0.1-1.8-0.4-2.7s-0.7-1.7-1.2-2.4c-0.6-0.7-1.3-1.3-2.1-1.8
			C-2595.5,1646.6-2596.5,1646.3-2597.7,1646.3z"/>
		<path fill="#2389AF" d="M-2578.2,1639.7h7.6l2.6,15.3l3.8-11.3h6.9l4,11.4l2.4-15.4h7.6l-4.2,28.5h-7.4l-5.8-12.4l-5.8,12.4h-7.4
			L-2578.2,1639.7z"/>
		<path fill="#2389AF" d="M-2537.2,1668.2v-28.5h21.1c1.6,0,3,0.3,4.1,0.8s2.1,1.2,2.8,2.1s1.3,1.8,1.6,2.9s0.5,2.1,0.5,3.2
			s-0.2,2.1-0.5,3.1s-0.9,2-1.6,2.8c-0.7,0.8-1.7,1.5-2.8,2s-2.5,0.8-4,0.8h-13.4v10.8L-2537.2,1668.2L-2537.2,1668.2z
			 M-2529.5,1650.5h13.4c0.4,0,0.7-0.1,0.9-0.4s0.3-0.7,0.3-1.1v-0.8c0-0.5-0.1-0.9-0.3-1.1c-0.2-0.3-0.5-0.4-0.9-0.4h-13.4V1650.5z
			"/>
		<path fill="#2389AF" d="M-2500.8,1668.2v-28.5h19.8c1.6,0,3,0.3,4.1,0.8s2.1,1.2,2.8,2.1s1.3,1.8,1.6,2.9s0.5,2.1,0.5,3.2
			c0,0.8-0.1,1.7-0.3,2.5s-0.6,1.6-1.1,2.4s-1.1,1.4-1.8,2c-0.8,0.6-1.7,1-2.8,1.3l0,0l0,0l6.8,11.2h-8.7l-6.5-10.8h-6.7v10.8
			L-2500.8,1668.2L-2500.8,1668.2z M-2493.1,1650.5h12.1c0.4,0,0.7-0.1,0.9-0.4s0.3-0.7,0.3-1.1v-0.8c0-0.5-0.1-0.9-0.3-1.1
			c-0.2-0.3-0.5-0.4-0.9-0.4h-12.1V1650.5z"/>
		<path fill="#2389AF" d="M-2451.7,1639.2c2.5,0,4.7,0.4,6.5,1.3s3.4,2.1,4.6,3.5s2.1,3,2.7,4.8c0.6,1.7,0.9,3.5,0.9,5.2
			s-0.3,3.4-0.9,5.2c-0.6,1.8-1.5,3.3-2.7,4.8c-1.2,1.4-2.7,2.6-4.6,3.5s-4,1.3-6.5,1.3s-4.6-0.4-6.5-1.3c-1.8-0.9-3.4-2.1-4.6-3.5
			c-1.2-1.4-2.1-3-2.7-4.8c-0.6-1.8-0.9-3.5-0.9-5.2s0.3-3.4,0.9-5.2c0.6-1.7,1.5-3.3,2.7-4.8s2.7-2.6,4.6-3.5
			C-2456.3,1639.7-2454.2,1639.2-2451.7,1639.2z M-2451.7,1646.3c-1.1,0-2.1,0.2-3,0.7s-1.5,1.1-2.1,1.8c-0.5,0.7-0.9,1.5-1.2,2.4
			s-0.4,1.8-0.4,2.7c0,0.9,0.1,1.8,0.4,2.7s0.7,1.7,1.2,2.4s1.2,1.3,2.1,1.8c0.8,0.5,1.8,0.7,3,0.7s2.2-0.2,3-0.7s1.5-1.1,2.1-1.8
			s1-1.5,1.2-2.4c0.3-0.9,0.4-1.8,0.4-2.7s-0.1-1.8-0.4-2.7s-0.7-1.7-1.2-2.4c-0.6-0.7-1.3-1.3-2.1-1.8
			C-2449.5,1646.6-2450.5,1646.3-2451.7,1646.3z"/>
	</g>
	<g>
		<g>
			<path fill="#2389AF" d="M-2577.8,1604v18.3h-30.6c-3.4,0-6.1-2.7-6.1-6.1v-30.6h18.3v13.2c0,2.9,2.3,5.2,5.2,5.2H-2577.8z"/>
		</g>
		<g>
			<path fill="#2389AF" d="M-2559.5,1604h-18.3v-13.2c0-2.9-2.3-5.2-5.2-5.2h-13.2v-18.3h30.6c3.4,0,6.1,2.7,6.1,6.1L-2559.5,1604
				L-2559.5,1604z"/>
		</g>
	</g>
</g>
<g>
	<g>
		<path fill="#2389AF" d="M-2095,1727.4h54.5v13.8h-39.1v7.7h36.6v13.8h-36.6v21.6h-15.4V1727.4z"/>
		<path fill="#2389AF" d="M-2027.2,1727.4h55.5v13.8h-40.2v7.7h37.6v13.8h-37.6v7.9h40.2v13.7h-55.5V1727.4z"/>
		<path fill="#2389AF" d="M-1957.4,1727.4h15.4v43.2h30.9v13.7h-46.2v-56.9H-1957.4z"/>
		<path fill="#2389AF" d="M-1898.9,1727.4h15.4v43.2h30.9v13.7h-46.2v-56.9H-1898.9z"/>
		<path fill="#2389AF" d="M-1816.3,1726.4c5,0,9.4,0.9,13.1,2.7s6.7,4.1,9.1,7s4.2,6,5.4,9.5c1.2,3.5,1.8,6.9,1.8,10.3
			s-0.6,6.8-1.8,10.3s-3,6.7-5.4,9.5s-5.4,5.2-9.1,6.9c-3.7,1.8-8.1,2.7-13.1,2.7s-9.3-0.9-13-2.7c-3.7-1.8-6.7-4.1-9.1-6.9
			s-4.2-6-5.4-9.5c-1.2-3.5-1.8-7-1.8-10.3c0-3.4,0.6-6.8,1.8-10.3s3-6.7,5.4-9.5s5.4-5.2,9.1-7
			C-1825.6,1727.3-1821.3,1726.4-1816.3,1726.4z M-1816.3,1740.7c-2.3,0-4.3,0.5-6,1.4s-3.1,2.2-4.2,3.6c-1.1,1.5-1.9,3.1-2.4,4.9
			s-0.8,3.6-0.8,5.4s0.3,3.6,0.8,5.4s1.4,3.4,2.4,4.9c1.1,1.5,2.5,2.7,4.2,3.6s3.7,1.4,6,1.4s4.4-0.5,6.1-1.4s3.1-2.1,4.2-3.6
			s1.9-3.1,2.5-4.9c0.5-1.8,0.8-3.6,0.8-5.4s-0.3-3.6-0.8-5.4s-1.4-3.4-2.5-4.9s-2.5-2.7-4.2-3.6
			C-1812,1741.1-1814,1740.7-1816.3,1740.7z"/>
		<path fill="#2389AF" d="M-1777.4,1727.4h15.2l5.2,30.6l7.6-22.7h13.8l8.1,22.7l4.7-30.7h15.2l-8.4,57h-14.8l-11.7-24.8l-11.6,24.8
			h-14.8L-1777.4,1727.4z"/>
		<path fill="#2389AF" d="M-1695.4,1784.4v-57h42.2c3.2,0,5.9,0.5,8.2,1.6c2.3,1.1,4.1,2.5,5.6,4.2s2.5,3.6,3.2,5.8
			c0.7,2.1,1,4.2,1,6.3s-0.4,4.2-1.1,6.3c-0.7,2.1-1.8,3.9-3.3,5.6s-3.3,3-5.6,4s-4.9,1.5-8,1.5h-26.9v21.6L-1695.4,1784.4
			L-1695.4,1784.4z M-1680.1,1749h26.9c0.8,0,1.4-0.3,1.9-0.8s0.7-1.3,0.7-2.3v-1.5c0-1-0.2-1.7-0.7-2.3s-1.1-0.8-1.9-0.8h-26.9
			V1749z"/>
		<path fill="#2389AF" d="M-1622.6,1784.4v-57h39.6c3.2,0,5.9,0.5,8.2,1.6c2.3,1.1,4.1,2.5,5.6,4.2s2.5,3.6,3.2,5.8
			c0.7,2.1,1,4.2,1,6.3c0,1.7-0.2,3.3-0.7,5s-1.2,3.3-2.1,4.8s-2.2,2.9-3.7,4c-1.5,1.2-3.4,2.1-5.5,2.7c0,0.1,0,0.1,0,0.1s0,0,0,0.1
			l13.6,22.3h-17.3l-13-21.6h-13.5v21.6L-1622.6,1784.4L-1622.6,1784.4z M-1607.2,1749h24.3c0.8,0,1.4-0.3,1.9-0.8s0.7-1.3,0.7-2.3
			v-1.5c0-1-0.2-1.7-0.7-2.3s-1.1-0.8-1.9-0.8h-24.3V1749z"/>
		<path fill="#2389AF" d="M-1524.3,1726.4c5,0,9.4,0.9,13.1,2.7s6.7,4.1,9.1,7s4.2,6,5.4,9.5c1.2,3.5,1.8,6.9,1.8,10.3
			s-0.6,6.8-1.8,10.3s-3,6.7-5.4,9.5s-5.4,5.2-9.1,6.9c-3.7,1.8-8.1,2.7-13.1,2.7s-9.3-0.9-13-2.7c-3.7-1.8-6.7-4.1-9.1-6.9
			s-4.2-6-5.4-9.5c-1.2-3.5-1.8-7-1.8-10.3c0-3.4,0.6-6.8,1.8-10.3s3-6.7,5.4-9.5s5.4-5.2,9.1-7
			C-1533.7,1727.3-1529.3,1726.4-1524.3,1726.4z M-1524.3,1740.7c-2.3,0-4.3,0.5-6,1.4s-3.1,2.2-4.2,3.6c-1.1,1.5-1.9,3.1-2.4,4.9
			s-0.8,3.6-0.8,5.4s0.3,3.6,0.8,5.4s1.4,3.4,2.4,4.9c1.1,1.5,2.5,2.7,4.2,3.6s3.7,1.4,6,1.4s4.4-0.5,6.1-1.4s3.1-2.1,4.2-3.6
			s1.9-3.1,2.5-4.9c0.5-1.8,0.8-3.6,0.8-5.4s-0.3-3.6-0.8-5.4s-1.4-3.4-2.5-4.9s-2.5-2.7-4.2-3.6
			C-1520,1741.1-1522,1740.7-1524.3,1740.7z"/>
	</g>
	<g>
		<g>
			<path fill="#2389AF" d="M-1776.6,1655.9v36.6h-61.2c-6.7,0-12.2-5.5-12.2-12.2v-61.2h36.6v26.4c0,5.8,4.7,10.4,10.4,10.4
				L-1776.6,1655.9L-1776.6,1655.9z"/>
		</g>
		<g>
			<path fill="#2389AF" d="M-1740,1655.9h-36.6v-26.4c0-5.8-4.7-10.4-10.4-10.4h-26.4v-36.6h61.2c6.7,0,12.2,5.5,12.2,12.2
				L-1740,1655.9L-1740,1655.9z"/>
		</g>
	</g>
</g>
</svg>
